ISO-10303-21;
HEADER;
FILE_DESCRIPTION (( 'STEP AP203' ),
    '1' );
FILE_NAME ('Деталь1.STEP',
    '2026-08-15T09:03:46',
    ( '' ),
    ( '' ),
    'SwSTEP 2.0',
    'SolidWorks 2021',
    '' );
FILE_SCHEMA (( 'CONFIG_CONTROL_DESIGN' ));
ENDSEC;

DATA;
#1 = ORIENTED_EDGE ( 'NONE', *, *, #943, .T. ) ;
#2 = DIRECTION ( 'NONE',  ( 0.000000000000000000, 0.000000000000000000, -1.000000000000000000 ) ) ;
#3 = VERTEX_POINT ( 'NONE', #1131 ) ;
#4 = FACE_OUTER_BOUND ( 'NONE', #925, .T. ) ;
#5 = CIRCLE ( 'NONE', #791, 3.000000000000002665 ) ;
#6 = FACE_BOUND ( 'NONE', #8, .T. ) ;
#7 = ORIENTED_EDGE ( 'NONE', *, *, #1206, .F. ) ;
#8 = EDGE_LOOP ( 'NONE', ( #936, #602, #991, #388 ) ) ;
#9 = COORDINATED_UNIVERSAL_TIME_OFFSET ( 3, 0, .AHEAD. ) ;
#10 = VERTEX_POINT ( 'NONE', #609 ) ;
#11 = LINE ( 'NONE', #669, #487 ) ;
#12 = CYLINDRICAL_SURFACE ( 'NONE', #1140, 3.000000000000002665 ) ;
#13 = AXIS2_PLACEMENT_3D ( 'NONE', #1200, #396, #789 ) ;
#14 = ORIENTED_EDGE ( 'NONE', *, *, #546, .F. ) ;
#15 = EDGE_CURVE ( 'NONE', #646, #916, #531, .T. ) ;
#16 = ADVANCED_FACE ( 'NONE', ( #615 ), #628, .T. ) ;
#17 = ORIENTED_EDGE ( 'NONE', *, *, #493, .F. ) ;
#18 = MECHANICAL_CONTEXT ( 'NONE', #423, 'mechanical' ) ;
#19 = EDGE_LOOP ( 'NONE', ( #1050, #1007 ) ) ;
#20 = CIRCLE ( 'NONE', #865, 29.99999999999999645 ) ;
#21 = AXIS2_PLACEMENT_3D ( 'NONE', #1082, #668, #1196 ) ;
#22 = CARTESIAN_POINT ( 'NONE',  ( -28.26700000000000657, -13.38349999999999795, 1000.000000000000000 ) ) ;
#23 = CARTESIAN_POINT ( 'NONE',  ( 0.000000000000000000, 0.000000000000000000, -5.000000000000000000 ) ) ;
#24 = ORIENTED_EDGE ( 'NONE', *, *, #255, .T. ) ;
#25 = AXIS2_PLACEMENT_3D ( 'NONE', #986, #97, #901 ) ;
#26 = ORIENTED_EDGE ( 'NONE', *, *, #1099, .T. ) ;
#27 = LINE ( 'NONE', #450, #383 ) ;
#28 = DIRECTION ( 'NONE',  ( 1.000000000000000000, 0.000000000000000000, 0.000000000000000000 ) ) ;
#29 = ORIENTED_EDGE ( 'NONE', *, *, #708, .T. ) ;
#30 = VERTEX_POINT ( 'NONE', #124 ) ;
#31 = DIRECTION ( 'NONE',  ( -1.000000000000000000, 0.000000000000000000, 0.000000000000000000 ) ) ;
#32 = LINE ( 'NONE', #640, #593 ) ;
#33 = EDGE_CURVE ( 'NONE', #235, #855, #329, .T. ) ;
#34 = ADVANCED_FACE ( 'NONE', ( #336 ), #12, .F. ) ;
#35 = LINE ( 'NONE', #348, #1265 ) ;
#36 = CC_DESIGN_PERSON_AND_ORGANIZATION_ASSIGNMENT ( #402, #326, ( #939 ) ) ;
#37 = VECTOR ( 'NONE', #997, 1000.000000000000000 ) ;
#38 = VERTEX_POINT ( 'NONE', #513 ) ;
#39 = PLANE ( 'NONE',  #239 ) ;
#40 = DIRECTION ( 'NONE',  ( -0.000000000000000000, -0.000000000000000000, -1.000000000000000000 ) ) ;
#41 = CIRCLE ( 'NONE', #756, 29.99999999999999645 ) ;
#42 = VERTEX_POINT ( 'NONE', #520 ) ;
#43 = PLANE ( 'NONE',  #1132 ) ;
#44 = CARTESIAN_POINT ( 'NONE',  ( 0.000000000000000000, 0.000000000000000000, 18.94125000000000014 ) ) ;
#45 = ORIENTED_EDGE ( 'NONE', *, *, #371, .F. ) ;
#46 = DIRECTION ( 'NONE',  ( -1.000000000000000000, 0.000000000000000000, 0.000000000000000000 ) ) ;
#47 = DIRECTION ( 'NONE',  ( -0.000000000000000000, -0.000000000000000000, -1.000000000000000000 ) ) ;
#48 = LINE ( 'NONE', #360, #319 ) ;
#49 = EDGE_CURVE ( 'NONE', #323, #353, #429, .T. ) ;
#50 = VERTEX_POINT ( 'NONE', #414 ) ;
#51 = AXIS2_PLACEMENT_3D ( 'NONE', #44, #470, #1270 ) ;
#52 = LINE ( 'NONE', #171, #1155 ) ;
#53 = DIRECTION ( 'NONE',  ( 0.000000000000000000, 0.000000000000000000, -1.000000000000000000 ) ) ;
#54 = CARTESIAN_POINT ( 'NONE',  ( -28.26699999999999591, 13.38350000000000151, 20.94125000000002146 ) ) ;
#55 = DIRECTION ( 'NONE',  ( -1.000000000000000000, 0.000000000000000000, 0.000000000000000000 ) ) ;
#56 = CARTESIAN_POINT ( 'NONE',  ( -38.00000000000002842, -35.00000000000000000, 0.000000000000000000 ) ) ;
#57 = VECTOR ( 'NONE', #578, 1000.000000000000000 ) ;
#58 = CIRCLE ( 'NONE', #807, 3.000000000000002665 ) ;
#59 = ORIENTED_EDGE ( 'NONE', *, *, #454, .T. ) ;
#60 = CARTESIAN_POINT ( 'NONE',  ( 26.76699999999999591, -13.38349999999999795, 1000.000000000000000 ) ) ;
#61 = CARTESIAN_POINT ( 'NONE',  ( 32.00000000000000000, 35.00000000000000000, 0.000000000000000000 ) ) ;
#62 = VECTOR ( 'NONE', #869, 1000.000000000000000 ) ;
#63 = DIRECTION ( 'NONE',  ( -0.000000000000000000, -0.000000000000000000, -1.000000000000000000 ) ) ;
#64 = CARTESIAN_POINT ( 'NONE',  ( -35.00000000000002132, -35.00000000000000000, -5.000000000000000000 ) ) ;
#65 = DIRECTION ( 'NONE',  ( -0.000000000000000000, -0.000000000000000000, -1.000000000000000000 ) ) ;
#66 = EDGE_CURVE ( 'NONE', #721, #872, #814, .T. ) ;
#67 = VECTOR ( 'NONE', #109, 1000.000000000000000 ) ;
#68 = DIRECTION ( 'NONE',  ( -1.000000000000000000, 0.000000000000000000, 0.000000000000000000 ) ) ;
#69 = FACE_OUTER_BOUND ( 'NONE', #1271, .T. ) ;
#70 = EDGE_CURVE ( 'NONE', #306, #1288, #1022, .T. ) ;
#71 = ORIENTED_EDGE ( 'NONE', *, *, #702, .T. ) ;
#72 = ADVANCED_FACE ( 'NONE', ( #920, #6 ), #421, .T. ) ;
#73 = EDGE_CURVE ( 'NONE', #91, #535, #5, .T. ) ;
#74 = CARTESIAN_POINT ( 'NONE',  ( 28.26699999999999946, 13.38350000000000151, 20.94125000000002146 ) ) ;
#75 = DIRECTION ( 'NONE',  ( -0.000000000000000000, -0.000000000000000000, 1.000000000000000000 ) ) ;
#76 = CARTESIAN_POINT ( 'NONE',  ( 0.000000000000000000, 0.000000000000000000, 18.94125000000000014 ) ) ;
#77 = AXIS2_PLACEMENT_3D ( 'NONE', #137, #1107, #718 ) ;
#78 = CARTESIAN_POINT ( 'NONE',  ( 40.00000000000000000, 4.898587196589413026E-15, 18.94125000000000014 ) ) ;
#79 = CARTESIAN_POINT ( 'NONE',  ( 0.000000000000000000, 0.000000000000000000, 18.94125000000000014 ) ) ;
#80 = CARTESIAN_POINT ( 'NONE',  ( -26.76700000000000301, 14.88350000000000506, 1000.000000000000000 ) ) ;
#81 = ORIENTED_EDGE ( 'NONE', *, *, #645, .F. ) ;
#82 = CIRCLE ( 'NONE', #886, 40.00000000000000000 ) ;
#83 = CARTESIAN_POINT ( 'NONE',  ( 19.92996652643194366, -19.95531778823256630, 0.000000000000000000 ) ) ;
#84 = DIRECTION ( 'NONE',  ( -0.000000000000000000, 0.000000000000000000, -1.000000000000000000 ) ) ;
#85 = ORIENTED_EDGE ( 'NONE', *, *, #170, .T. ) ;
#86 = CARTESIAN_POINT ( 'NONE',  ( -38.00000000000002842, -35.00000000000000000, 1005.000000000000114 ) ) ;
#87 = CARTESIAN_POINT ( 'NONE',  ( 19.92996652643194366, -19.95531778823256630, -5.000000000000000000 ) ) ;
#88 = VERTEX_POINT ( 'NONE', #831 ) ;
#89 = EDGE_CURVE ( 'NONE', #544, #3, #1046, .T. ) ;
#90 = FACE_OUTER_BOUND ( 'NONE', #204, .T. ) ;
#91 = VERTEX_POINT ( 'NONE', #776 ) ;
#92 = DIRECTION ( 'NONE',  ( -0.000000000000000000, -0.000000000000000000, -1.000000000000000000 ) ) ;
#93 = CARTESIAN_POINT ( 'NONE',  ( -26.76700000000000301, 14.88350000000000506, 20.94125000000002146 ) ) ;
#94 = ORIENTED_EDGE ( 'NONE', *, *, #606, .T. ) ;
#95 = ADVANCED_FACE ( 'NONE', ( #903 ), #889, .F. ) ;
#96 = DIRECTION ( 'NONE',  ( 0.000000000000000000, 0.000000000000000000, -1.000000000000000000 ) ) ;
#97 = DIRECTION ( 'NONE',  ( 0.000000000000000000, 0.000000000000000000, 1.000000000000000000 ) ) ;
#98 = VECTOR ( 'NONE', #566, 1000.000000000000000 ) ;
#99 = DIRECTION ( 'NONE',  ( -0.000000000000000000, -0.000000000000000000, -1.000000000000000000 ) ) ;
#100 = DIRECTION ( 'NONE',  ( -1.000000000000000000, 0.000000000000000000, 0.000000000000000000 ) ) ;
#101 = VECTOR ( 'NONE', #699, 1000.000000000000000 ) ;
#102 = ORIENTED_EDGE ( 'NONE', *, *, #550, .T. ) ;
#103 = DIRECTION ( 'NONE',  ( 1.000000000000000000, 0.000000000000000000, 0.000000000000000000 ) ) ;
#104 = CIRCLE ( 'NONE', #1278, 1.500000000000011768 ) ;
#105 = APPROVAL_ROLE ( '' ) ;
#106 = AXIS2_PLACEMENT_3D ( 'NONE', #445, #847, #1262 ) ;
#107 = ORIENTED_EDGE ( 'NONE', *, *, #352, .T. ) ;
#108 = CARTESIAN_POINT ( 'NONE',  ( -49.92996652643193300, 19.95531778823237801, -5.000000000000000000 ) ) ;
#109 = DIRECTION ( 'NONE',  ( -0.000000000000000000, -0.000000000000000000, -1.000000000000000000 ) ) ;
#110 = APPROVAL_PERSON_ORGANIZATION ( #1017, #215, #105 ) ;
#111 = ORIENTED_EDGE ( 'NONE', *, *, #677, .F. ) ;
#112 = EDGE_CURVE ( 'NONE', #855, #717, #1006, .T. ) ;
#113 = VERTEX_POINT ( 'NONE', #186 ) ;
#114 = ORIENTED_EDGE ( 'NONE', *, *, #216, .T. ) ;
#115 = EDGE_CURVE ( 'NONE', #569, #544, #397, .T. ) ;
#116 = CARTESIAN_POINT ( 'NONE',  ( -19.92996652643193656, 19.95531778823259472, -5.000000000000000000 ) ) ;
#117 = CARTESIAN_POINT ( 'NONE',  ( 35.00000000000000000, 35.00000000000000000, -5.000000000000000000 ) ) ;
#118 = EDGE_CURVE ( 'NONE', #1028, #235, #783, .T. ) ;
#119 = VERTEX_POINT ( 'NONE', #278 ) ;
#120 = ORIENTED_EDGE ( 'NONE', *, *, #683, .T. ) ;
#121 = DATE_AND_TIME ( #302, #364 ) ;
#122 = ORIENTED_EDGE ( 'NONE', *, *, #877, .F. ) ;
#123 = DIRECTION ( 'NONE',  ( 0.000000000000000000, -1.000000000000000000, 0.000000000000000000 ) ) ;
#124 = CARTESIAN_POINT ( 'NONE',  ( -40.00000000000000000, 0.000000000000000000, 18.94125000000000014 ) ) ;
#125 = ORIENTED_EDGE ( 'NONE', *, *, #533, .F. ) ;
#126 = VERTEX_POINT ( 'NONE', #790 ) ;
#127 = DIRECTION ( 'NONE',  ( -0.000000000000000000, -0.000000000000000000, 1.000000000000000000 ) ) ;
#128 = AXIS2_PLACEMENT_3D ( 'NONE', #76, #488, #884 ) ;
#129 = AXIS2_PLACEMENT_3D ( 'NONE', #87, #75, #1307 ) ;
#130 = AXIS2_PLACEMENT_3D ( 'NONE', #332, #1060, #151 ) ;
#131 = CARTESIAN_POINT ( 'NONE',  ( 26.76699999999999591, -13.38349999999999795, 1000.000000000000000 ) ) ;
#132 = EDGE_LOOP ( 'NONE', ( #863, #730 ) ) ;
#133 = VECTOR ( 'NONE', #479, 1000.000000000000000 ) ;
#134 = ORIENTED_EDGE ( 'NONE', *, *, #1261, .F. ) ;
#135 = EDGE_CURVE ( 'NONE', #540, #399, #1251, .T. ) ;
#136 = CARTESIAN_POINT ( 'NONE',  ( 35.00000000000000000, 35.00000000000000000, -5.000000000000000000 ) ) ;
#137 = CARTESIAN_POINT ( 'NONE',  ( 34.99999999999999289, -35.00000000000000000, -5.000000000000000000 ) ) ;
#138 = PRODUCT_RELATED_PRODUCT_CATEGORY ( 'detail', '', ( #150 ) ) ;
#139 = DIRECTION ( 'NONE',  ( -1.000000000000000000, 0.000000000000000000, 0.000000000000000000 ) ) ;
#140 = ORIENTED_EDGE ( 'NONE', *, *, #354, .F. ) ;
#141 = DIRECTION ( 'NONE',  ( 1.000000000000000000, 0.000000000000000000, 0.000000000000000000 ) ) ;
#142 = DIRECTION ( 'NONE',  ( -1.000000000000000000, 0.000000000000000000, 0.000000000000000000 ) ) ;
#143 = CIRCLE ( 'NONE', #77, 3.000000000000002665 ) ;
#144 = ORIENTED_EDGE ( 'NONE', *, *, #255, .F. ) ;
#145 = CYLINDRICAL_SURFACE ( 'NONE', #130, 3.000000000000002665 ) ;
#146 = FACE_OUTER_BOUND ( 'NONE', #840, .T. ) ;
#147 = AXIS2_PLACEMENT_3D ( 'NONE', #985, #359, #53 ) ;
#148 = ORIENTED_EDGE ( 'NONE', *, *, #858, .F. ) ;
#149 = AXIS2_PLACEMENT_3D ( 'NONE', #1298, #1197, #595 ) ;
#150 = PRODUCT ( 'Деталь1', 'Деталь1', '', ( #18 ) ) ;
#151 = DIRECTION ( 'NONE',  ( -1.000000000000000000, 0.000000000000000000, 0.000000000000000000 ) ) ;
#152 = FACE_OUTER_BOUND ( 'NONE', #1059, .T. ) ;
#153 = FACE_OUTER_BOUND ( 'NONE', #1292, .T. ) ;
#154 = ADVANCED_FACE ( 'NONE', ( #486 ), #291, .T. ) ;
#155 = ORIENTED_EDGE ( 'NONE', *, *, #550, .F. ) ;
#156 = DIRECTION ( 'NONE',  ( -0.000000000000000000, -0.000000000000000000, -1.000000000000000000 ) ) ;
#157 = DIRECTION ( 'NONE',  ( -1.000000000000000000, 0.000000000000000000, 0.000000000000000000 ) ) ;
#158 = CARTESIAN_POINT ( 'NONE',  ( -26.76700000000000301, -14.88350000000000151, 1000.000000000000000 ) ) ;
#159 = CARTESIAN_POINT ( 'NONE',  ( 42.00000000000000000, 5.143516556418883322E-15, 20.94124999999999659 ) ) ;
#160 = DIRECTION ( 'NONE',  ( -0.000000000000000000, -0.000000000000000000, -1.000000000000000000 ) ) ;
#161 = ORIENTED_EDGE ( 'NONE', *, *, #135, .T. ) ;
#162 = CIRCLE ( 'NONE', #671, 35.00000000000000711 ) ;
#163 = FACE_OUTER_BOUND ( 'NONE', #438, .T. ) ;
#164 = FACE_OUTER_BOUND ( 'NONE', #1134, .T. ) ;
#165 =( NAMED_UNIT ( * ) SI_UNIT ( $, .STERADIAN. ) SOLID_ANGLE_UNIT ( ) );
#166 = CYLINDRICAL_SURFACE ( 'NONE', #51, 35.00000000000000711 ) ;
#167 = EDGE_CURVE ( 'NONE', #1216, #42, #749, .T. ) ;
#168 = CARTESIAN_POINT ( 'NONE',  ( 19.92996652643194366, 19.95531778823259472, -5.000000000000000000 ) ) ;
#169 = AXIS2_PLACEMENT_3D ( 'NONE', #1145, #1236, #620 ) ;
#170 = EDGE_CURVE ( 'NONE', #88, #259, #1215, .T. ) ;
#171 = CARTESIAN_POINT ( 'NONE',  ( 26.76699999999999591, -14.88350000000000861, 1000.000000000000000 ) ) ;
#172 = CARTESIAN_POINT ( 'NONE',  ( 28.26700000000000301, 13.38350000000000151, 1000.000000000000000 ) ) ;
#173 = ADVANCED_FACE ( 'NONE', ( #883 ), #896, .T. ) ;
#174 = APPROVAL_PERSON_ORGANIZATION ( #924, #1098, #915 ) ;
#175 = FACE_BOUND ( 'NONE', #740, .T. ) ;
#176 = ORIENTED_EDGE ( 'NONE', *, *, #453, .F. ) ;
#177 = DIRECTION ( 'NONE',  ( -1.000000000000000000, 0.000000000000000000, 0.000000000000000000 ) ) ;
#178 = FACE_OUTER_BOUND ( 'NONE', #785, .T. ) ;
#179 = LINE ( 'NONE', #771, #1104 ) ;
#180 = DIRECTION ( 'NONE',  ( -0.000000000000000000, -0.000000000000000000, -1.000000000000000000 ) ) ;
#181 = CARTESIAN_POINT ( 'NONE',  ( -26.76700000000000301, 14.88350000000000506, 1000.000000000000000 ) ) ;
#182 = VERTEX_POINT ( 'NONE', #1300 ) ;
#183 = CARTESIAN_POINT ( 'NONE',  ( -49.92996652643193300, -19.95531778823256630, -5.000000000000000000 ) ) ;
#184 = AXIS2_PLACEMENT_3D ( 'NONE', #603, #237, #820 ) ;
#185 = LINE ( 'NONE', #473, #37 ) ;
#186 = CARTESIAN_POINT ( 'NONE',  ( -42.00000000000000000, 0.000000000000000000, 20.94124999999999659 ) ) ;
#187 = VERTEX_POINT ( 'NONE', #679 ) ;
#188 = VECTOR ( 'NONE', #196, 1000.000000000000000 ) ;
#189 = CARTESIAN_POINT ( 'NONE',  ( -26.76700000000000301, -13.38349999999999795, 20.94125000000002146 ) ) ;
#190 = ORIENTED_EDGE ( 'NONE', *, *, #772, .T. ) ;
#191 = LOCAL_TIME ( 12, 3, 46.00000000000000000, #523 ) ;
#192 = DIRECTION ( 'NONE',  ( -0.000000000000000000, -0.000000000000000000, -1.000000000000000000 ) ) ;
#193 = DIRECTION ( 'NONE',  ( -1.000000000000000000, 0.000000000000000000, 0.000000000000000000 ) ) ;
#194 = EDGE_CURVE ( 'NONE', #50, #539, #1086, .T. ) ;
#195 = ORIENTED_EDGE ( 'NONE', *, *, #49, .T. ) ;
#196 = DIRECTION ( 'NONE',  ( -0.000000000000000000, -0.000000000000000000, 1.000000000000000000 ) ) ;
#197 = SHAPE_DEFINITION_REPRESENTATION ( #926, #563 ) ;
#198 = ORIENTED_EDGE ( 'NONE', *, *, #959, .F. ) ;
#199 = LINE ( 'NONE', #1005, #300 ) ;
#200 = DIRECTION ( 'NONE',  ( -1.000000000000000000, 0.000000000000000000, 0.000000000000000000 ) ) ;
#201 = EDGE_LOOP ( 'NONE', ( #226, #418, #592, #907 ) ) ;
#202 = DIRECTION ( 'NONE',  ( -0.000000000000000000, 0.000000000000000000, -1.000000000000000000 ) ) ;
#203 = PERSON_AND_ORGANIZATION_ROLE ( 'creator' ) ;
#204 = EDGE_LOOP ( 'NONE', ( #898, #221, #220, #363 ) ) ;
#205 = VECTOR ( 'NONE', #970, 1000.000000000000000 ) ;
#206 = CARTESIAN_POINT ( 'NONE',  ( 26.76699999999999591, 19.95531778823259472, -5.000000000000000000 ) ) ;
#207 = CARTESIAN_POINT ( 'NONE',  ( 28.26700000000001367, -13.38349999999999618, 1000.000000000000000 ) ) ;
#208 = VERTEX_POINT ( 'NONE', #1201 ) ;
#209 = EDGE_CURVE ( 'NONE', #894, #430, #505, .T. ) ;
#210 = EDGE_CURVE ( 'NONE', #235, #306, #757, .T. ) ;
#211 = VECTOR ( 'NONE', #224, 1000.000000000000000 ) ;
#212 = AXIS2_PLACEMENT_3D ( 'NONE', #420, #320, #1128 ) ;
#213 = EDGE_CURVE ( 'NONE', #1216, #182, #707, .T. ) ;
#214 = ORIENTED_EDGE ( 'NONE', *, *, #1118, .F. ) ;
#215 = APPROVAL ( #1009, 'UNSPECIFIED' ) ;
#216 = EDGE_CURVE ( 'NONE', #522, #318, #82, .T. ) ;
#217 = FACE_OUTER_BOUND ( 'NONE', #887, .T. ) ;
#218 = DIRECTION ( 'NONE',  ( 0.000000000000000000, 0.000000000000000000, -1.000000000000000000 ) ) ;
#219 = VECTOR ( 'NONE', #667, 1000.000000000000000 ) ;
#220 = ORIENTED_EDGE ( 'NONE', *, *, #1120, .F. ) ;
#221 = ORIENTED_EDGE ( 'NONE', *, *, #943, .F. ) ;
#222 = PERSON_AND_ORGANIZATION ( #1158, #761 ) ;
#223 = ORIENTED_EDGE ( 'NONE', *, *, #959, .T. ) ;
#224 = DIRECTION ( 'NONE',  ( -0.000000000000000000, -0.000000000000000000, -1.000000000000000000 ) ) ;
#225 = ORIENTED_EDGE ( 'NONE', *, *, #478, .F. ) ;
#226 = ORIENTED_EDGE ( 'NONE', *, *, #213, .F. ) ;
#227 = ORIENTED_EDGE ( 'NONE', *, *, #568, .F. ) ;
#228 = AXIS2_PLACEMENT_3D ( 'NONE', #404, #492, #381 ) ;
#229 = DIRECTION ( 'NONE',  ( 0.000000000000000000, -1.000000000000000000, 0.000000000000000000 ) ) ;
#230 = VERTEX_POINT ( 'NONE', #377 ) ;
#231 = LINE ( 'NONE', #627, #406 ) ;
#232 = AXIS2_PLACEMENT_3D ( 'NONE', #1214, #878, #177 ) ;
#233 = ADVANCED_FACE ( 'NONE', ( #178 ), #582, .T. ) ;
#234 = EDGE_LOOP ( 'NONE', ( #613, #696 ) ) ;
#235 = VERTEX_POINT ( 'NONE', #181 ) ;
#236 = DIRECTION ( 'NONE',  ( 3.888497349669684180E-16, -1.000000000000000000, 0.000000000000000000 ) ) ;
#237 = DIRECTION ( 'NONE',  ( -1.000000000000000000, 0.000000000000000000, 0.000000000000000000 ) ) ;
#238 = CIRCLE ( 'NONE', #382, 3.000000000000002665 ) ;
#239 = AXIS2_PLACEMENT_3D ( 'NONE', #853, #1051, #1289 ) ;
#240 = CARTESIAN_POINT ( 'NONE',  ( -28.26699999999999591, 13.38350000000000151, 1000.000000000000000 ) ) ;
#241 = EDGE_LOOP ( 'NONE', ( #644, #619, #1035, #422 ) ) ;
#242 = EDGE_CURVE ( 'NONE', #923, #1028, #258, .T. ) ;
#243 = VECTOR ( 'NONE', #1285, 1000.000000000000000 ) ;
#244 = ORIENTED_EDGE ( 'NONE', *, *, #449, .F. ) ;
#245 = CARTESIAN_POINT ( 'NONE',  ( 35.00000000000000000, 35.00000000000000000, 0.000000000000000000 ) ) ;
#246 = CARTESIAN_POINT ( 'NONE',  ( 40.00000000000000000, 4.898587196589413026E-15, -5.000000000000000000 ) ) ;
#247 = VECTOR ( 'NONE', #998, 1000.000000000000000 ) ;
#248 = ORIENTED_EDGE ( 'NONE', *, *, #354, .T. ) ;
#249 = CARTESIAN_POINT ( 'NONE',  ( 34.99999999999999289, -35.00000000000000000, 0.000000000000000000 ) ) ;
#250 = DIRECTION ( 'NONE',  ( -0.000000000000000000, -0.000000000000000000, -1.000000000000000000 ) ) ;
#251 = CIRCLE ( 'NONE', #1169, 1.500000000000004885 ) ;
#252 = ORIENTED_EDGE ( 'NONE', *, *, #723, .F. ) ;
#253 = DIRECTION ( 'NONE',  ( -1.000000000000000000, 0.000000000000000000, 0.000000000000000000 ) ) ;
#254 = EDGE_CURVE ( 'NONE', #872, #430, #179, .T. ) ;
#255 = EDGE_CURVE ( 'NONE', #38, #30, #1058, .T. ) ;
#256 = FACE_OUTER_BOUND ( 'NONE', #514, .T. ) ;
#257 = AXIS2_PLACEMENT_3D ( 'NONE', #538, #1049, #1150 ) ;
#258 = CIRCLE ( 'NONE', #433, 1.500000000000004885 ) ;
#259 = VERTEX_POINT ( 'NONE', #482 ) ;
#260 = FACE_BOUND ( 'NONE', #750, .T. ) ;
#261 = CARTESIAN_POINT ( 'NONE',  ( 34.99999999999999289, -35.00000000000000000, 1005.000000000000114 ) ) ;
#262 = CARTESIAN_POINT ( 'NONE',  ( 49.92996652643194011, 19.95531778823237801, 0.000000000000000000 ) ) ;
#263 = ORIENTED_EDGE ( 'NONE', *, *, #1248, .F. ) ;
#264 = PLANE ( 'NONE',  #577 ) ;
#265 = DESIGN_CONTEXT ( 'detailed design', #275, 'design' ) ;
#266 = CARTESIAN_POINT ( 'NONE',  ( -28.26699999999999591, 13.38350000000000151, 1000.000000000000000 ) ) ;
#267 = LINE ( 'NONE', #262, #1147 ) ;
#268 = FACE_OUTER_BOUND ( 'NONE', #310, .T. ) ;
#269 = ADVANCED_FACE ( 'NONE', ( #152 ), #966, .F. ) ;
#270 = ADVANCED_FACE ( 'NONE', ( #662 ), #584, .F. ) ;
#271 = AXIS2_PLACEMENT_3D ( 'NONE', #459, #554, #1170 ) ;
#272 = FACE_OUTER_BOUND ( 'NONE', #741, .T. ) ;
#273 = DIRECTION ( 'NONE',  ( 0.000000000000000000, 0.000000000000000000, -1.000000000000000000 ) ) ;
#274 = LINE ( 'NONE', #78, #1000 ) ;
#275 = APPLICATION_CONTEXT ( 'configuration controlled 3d designs of mechanical parts and assemblies' ) ;
#276 = ORIENTED_EDGE ( 'NONE', *, *, #1016, .T. ) ;
#277 = DIRECTION ( 'NONE',  ( 0.000000000000000000, 0.000000000000000000, -1.000000000000000000 ) ) ;
#278 = CARTESIAN_POINT ( 'NONE',  ( 38.00000000000000711, 35.00000000000000000, 0.000000000000000000 ) ) ;
#279 = CIRCLE ( 'NONE', #128, 40.00000000000000000 ) ;
#280 = AXIS2_PLACEMENT_3D ( 'NONE', #249, #639, #345 ) ;
#281 = PLANE ( 'NONE',  #700 ) ;
#282 = DIRECTION ( 'NONE',  ( 0.000000000000000000, 0.000000000000000000, -1.000000000000000000 ) ) ;
#283 = CARTESIAN_POINT ( 'NONE',  ( 34.99999999999999289, -35.00000000000000000, 1005.000000000000114 ) ) ;
#284 = DIRECTION ( 'NONE',  ( 0.000000000000000000, 0.000000000000000000, 1.000000000000000000 ) ) ;
#285 = VERTEX_POINT ( 'NONE', #1175 ) ;
#286 = VECTOR ( 'NONE', #1253, 1000.000000000000000 ) ;
#287 = DIRECTION ( 'NONE',  ( -0.000000000000000000, -0.000000000000000000, -1.000000000000000000 ) ) ;
#288 = FACE_OUTER_BOUND ( 'NONE', #610, .T. ) ;
#289 = ORIENTED_EDGE ( 'NONE', *, *, #641, .F. ) ;
#290 = CARTESIAN_POINT ( 'NONE',  ( 34.99999999999999289, -35.00000000000000000, 0.000000000000000000 ) ) ;
#291 = CYLINDRICAL_SURFACE ( 'NONE', #228, 29.99999999999999645 ) ;
#292 = ORIENTED_EDGE ( 'NONE', *, *, #510, .F. ) ;
#293 = DIRECTION ( 'NONE',  ( -1.000000000000000000, 0.000000000000000000, 0.000000000000000000 ) ) ;
#294 = VERTEX_POINT ( 'NONE', #61 ) ;
#295 = ADVANCED_FACE ( 'NONE', ( #780 ), #477, .T. ) ;
#296 = DIRECTION ( 'NONE',  ( 0.000000000000000000, -1.000000000000000000, 0.000000000000000000 ) ) ;
#297 = DIRECTION ( 'NONE',  ( 0.000000000000000000, 0.000000000000000000, -1.000000000000000000 ) ) ;
#298 = ORIENTED_EDGE ( 'NONE', *, *, #1116, .F. ) ;
#299 = VECTOR ( 'NONE', #301, 1000.000000000000000 ) ;
#300 = VECTOR ( 'NONE', #92, 1000.000000000000000 ) ;
#301 = DIRECTION ( 'NONE',  ( -0.000000000000000000, 1.000000000000000000, 0.000000000000000000 ) ) ;
#302 = CALENDAR_DATE ( 2026, 15, 8 ) ;
#303 = ORIENTED_EDGE ( 'NONE', *, *, #194, .F. ) ;
#304 = CARTESIAN_POINT ( 'NONE',  ( -26.76700000000000301, 13.38350000000000151, 1000.000000000000000 ) ) ;
#305 = CARTESIAN_POINT ( 'NONE',  ( -26.76700000000000301, 13.38350000000000151, 1000.000000000000000 ) ) ;
#306 = VERTEX_POINT ( 'NONE', #266 ) ;
#307 = DIRECTION ( 'NONE',  ( -1.000000000000000000, 0.000000000000000000, 0.000000000000000000 ) ) ;
#308 = DATE_TIME_ROLE ( 'classification_date' ) ;
#309 = ADVANCED_FACE ( 'NONE', ( #164 ), #281, .T. ) ;
#310 = EDGE_LOOP ( 'NONE', ( #71, #1228, #823, #1047 ) ) ;
#311 = CARTESIAN_POINT ( 'NONE',  ( -49.92996652643193300, -19.95531778823256630, 0.000000000000000000 ) ) ;
#312 = DIRECTION ( 'NONE',  ( -0.000000000000000000, -0.000000000000000000, -1.000000000000000000 ) ) ;
#313 = ADVANCED_FACE ( 'NONE', ( #1295 ), #682, .F. ) ;
#314 = ORIENTED_EDGE ( 'NONE', *, *, #415, .T. ) ;
#315 = ADVANCED_FACE ( 'NONE', ( #962 ), #467, .F. ) ;
#316 = EDGE_CURVE ( 'NONE', #119, #535, #880, .T. ) ;
#317 = APPROVAL_DATE_TIME ( #503, #1057 ) ;
#318 = VERTEX_POINT ( 'NONE', #786 ) ;
#319 = VECTOR ( 'NONE', #1166, 1000.000000000000000 ) ;
#320 = DIRECTION ( 'NONE',  ( -0.000000000000000000, -0.000000000000000000, -1.000000000000000000 ) ) ;
#321 = CARTESIAN_POINT ( 'NONE',  ( 28.26700000000001367, -13.38349999999999618, 1000.000000000000000 ) ) ;
#322 = DIRECTION ( 'NONE',  ( -0.000000000000000000, -0.000000000000000000, -1.000000000000000000 ) ) ;
#323 = VERTEX_POINT ( 'NONE', #868 ) ;
#324 = ORIENTED_EDGE ( 'NONE', *, *, #115, .T. ) ;
#325 = AXIS2_PLACEMENT_3D ( 'NONE', #686, #984, #1090 ) ;
#326 = PERSON_AND_ORGANIZATION_ROLE ( 'design_supplier' ) ;
#327 = ORIENTED_EDGE ( 'NONE', *, *, #917, .F. ) ;
#328 = DIRECTION ( 'NONE',  ( -0.000000000000000000, -0.000000000000000000, -1.000000000000000000 ) ) ;
#329 = LINE ( 'NONE', #933, #286 ) ;
#330 = ORIENTED_EDGE ( 'NONE', *, *, #647, .T. ) ;
#331 = ORIENTED_EDGE ( 'NONE', *, *, #170, .F. ) ;
#332 = CARTESIAN_POINT ( 'NONE',  ( 35.00000000000000000, 35.00000000000000000, 1005.000000000000114 ) ) ;
#333 = ORIENTED_EDGE ( 'NONE', *, *, #842, .T. ) ;
#334 = AXIS2_PLACEMENT_3D ( 'NONE', #481, #604, #1193 ) ;
#335 = CARTESIAN_POINT ( 'NONE',  ( -19.92996652643171984, -49.95531778823256275, -5.000000000000000000 ) ) ;
#336 = FACE_OUTER_BOUND ( 'NONE', #201, .T. ) ;
#337 = ORIENTED_EDGE ( 'NONE', *, *, #778, .F. ) ;
#338 = VERTEX_POINT ( 'NONE', #1204 ) ;
#339 = PLANE ( 'NONE',  #638 ) ;
#340 = EDGE_CURVE ( 'NONE', #113, #1309, #975, .T. ) ;
#341 = DIRECTION ( 'NONE',  ( -1.000000000000000000, -0.000000000000000000, -0.000000000000000000 ) ) ;
#342 = CIRCLE ( 'NONE', #507, 29.99999999999999645 ) ;
#343 = EDGE_LOOP ( 'NONE', ( #931, #1230, #1312, #1162 ) ) ;
#344 = VERTEX_POINT ( 'NONE', #374 ) ;
#345 = DIRECTION ( 'NONE',  ( 1.000000000000000000, 0.000000000000000000, 0.000000000000000000 ) ) ;
#346 = VECTOR ( 'NONE', #123, 1000.000000000000000 ) ;
#347 = AXIS2_PLACEMENT_3D ( 'NONE', #136, #541, #31 ) ;
#348 = CARTESIAN_POINT ( 'NONE',  ( 19.92996652643172339, -49.95531778823256275, -5.000000000000000000 ) ) ;
#349 = EDGE_LOOP ( 'NONE', ( #1328, #303, #1239, #1024 ) ) ;
#350 = DIRECTION ( 'NONE',  ( -1.000000000000000000, -3.888497349669684180E-16, 0.000000000000000000 ) ) ;
#351 = DIRECTION ( 'NONE',  ( -1.000000000000000000, 0.000000000000000000, 0.000000000000000000 ) ) ;
#352 = EDGE_CURVE ( 'NONE', #646, #923, #673, .T. ) ;
#353 = VERTEX_POINT ( 'NONE', #1087 ) ;
#354 = EDGE_CURVE ( 'NONE', #30, #38, #279, .T. ) ;
#355 = CARTESIAN_POINT ( 'NONE',  ( -26.76700000000000301, 14.88350000000000506, 1000.000000000000000 ) ) ;
#356 = CARTESIAN_POINT ( 'NONE',  ( 19.92996652643172695, -49.95531778823256275, -5.000000000000000000 ) ) ;
#357 = ORIENTED_EDGE ( 'NONE', *, *, #15, .F. ) ;
#358 = DIRECTION ( 'NONE',  ( -1.000000000000000000, 0.000000000000000000, 0.000000000000000000 ) ) ;
#359 = DIRECTION ( 'NONE',  ( 0.000000000000000000, -1.000000000000000000, -0.000000000000000000 ) ) ;
#360 = CARTESIAN_POINT ( 'NONE',  ( -49.92996652643193300, 19.95531778823237801, 0.000000000000000000 ) ) ;
#361 = AXIS2_PLACEMENT_3D ( 'NONE', #517, #96, #293 ) ;
#362 = VECTOR ( 'NONE', #65, 1000.000000000000000 ) ;
#363 = ORIENTED_EDGE ( 'NONE', *, *, #449, .T. ) ;
#364 = LOCAL_TIME ( 12, 3, 46.00000000000000000, #612 ) ;
#365 = DIRECTION ( 'NONE',  ( -0.000000000000000000, -0.000000000000000000, 1.000000000000000000 ) ) ;
#366 = CARTESIAN_POINT ( 'NONE',  ( 26.76699999999999591, 13.38350000000000151, 1000.000000000000000 ) ) ;
#367 = DIRECTION ( 'NONE',  ( -0.000000000000000000, -0.000000000000000000, -1.000000000000000000 ) ) ;
#368 = FACE_BOUND ( 'NONE', #1246, .T. ) ;
#369 = EDGE_CURVE ( 'NONE', #802, #666, #597, .T. ) ;
#370 = CYLINDRICAL_SURFACE ( 'NONE', #798, 3.000000000000002665 ) ;
#371 = EDGE_CURVE ( 'NONE', #42, #859, #1061, .T. ) ;
#372 = EDGE_LOOP ( 'NONE', ( #1084, #711, #298, #432 ) ) ;
#373 = CARTESIAN_POINT ( 'NONE',  ( -32.00000000000000000, 35.00000000000000000, 0.000000000000000000 ) ) ;
#374 = CARTESIAN_POINT ( 'NONE',  ( -26.76700000000000301, 13.38350000000000151, 1000.000000000000000 ) ) ;
#375 = ORIENTED_EDGE ( 'NONE', *, *, #1227, .T. ) ;
#376 = FACE_BOUND ( 'NONE', #349, .T. ) ;
#377 = CARTESIAN_POINT ( 'NONE',  ( 38.00000000000000000, -35.00000000000000000, -5.000000000000000000 ) ) ;
#378 = AXIS2_PLACEMENT_3D ( 'NONE', #356, #573, #464 ) ;
#379 = CARTESIAN_POINT ( 'NONE',  ( -26.76700000000000301, -13.38349999999999795, 1000.000000000000000 ) ) ;
#380 = CARTESIAN_POINT ( 'NONE',  ( 28.26700000000001367, -13.38349999999999618, 20.94125000000002146 ) ) ;
#381 = DIRECTION ( 'NONE',  ( 1.000000000000000000, 0.000000000000000000, 0.000000000000000000 ) ) ;
#382 = AXIS2_PLACEMENT_3D ( 'NONE', #932, #452, #1129 ) ;
#383 = VECTOR ( 'NONE', #552, 1000.000000000000000 ) ;
#384 = ORIENTED_EDGE ( 'NONE', *, *, #591, .T. ) ;
#385 =( GEOMETRIC_REPRESENTATION_CONTEXT ( 3 ) GLOBAL_UNCERTAINTY_ASSIGNED_CONTEXT ( ( #1165 ) ) GLOBAL_UNIT_ASSIGNED_CONTEXT ( ( #1183, #483, #165 ) ) REPRESENTATION_CONTEXT ( 'NONE', 'WORKASPACE' ) );
#386 = DIRECTION ( 'NONE',  ( 0.000000000000000000, -0.000000000000000000, 1.000000000000000000 ) ) ;
#387 = FACE_OUTER_BOUND ( 'NONE', #1063, .T. ) ;
#388 = ORIENTED_EDGE ( 'NONE', *, *, #588, .F. ) ;
#389 = DIRECTION ( 'NONE',  ( 0.000000000000000000, 0.000000000000000000, -1.000000000000000000 ) ) ;
#390 = DIRECTION ( 'NONE',  ( 0.000000000000000000, -0.000000000000000000, 1.000000000000000000 ) ) ;
#391 = ORIENTED_EDGE ( 'NONE', *, *, #957, .F. ) ;
#392 = EDGE_CURVE ( 'NONE', #10, #285, #900, .T. ) ;
#393 = DIRECTION ( 'NONE',  ( -1.000000000000000000, 0.000000000000000000, 0.000000000000000000 ) ) ;
#394 = LINE ( 'NONE', #158, #243 ) ;
#395 = VERTEX_POINT ( 'NONE', #1324 ) ;
#396 = DIRECTION ( 'NONE',  ( -0.000000000000000000, 0.000000000000000000, -1.000000000000000000 ) ) ;
#397 = LINE ( 'NONE', #797, #1066 ) ;
#398 = AXIS2_PLACEMENT_3D ( 'NONE', #806, #390, #1108 ) ;
#399 = VERTEX_POINT ( 'NONE', #992 ) ;
#400 = CIRCLE ( 'NONE', #447, 3.000000000000002665 ) ;
#401 = CARTESIAN_POINT ( 'NONE',  ( 49.92996652643194011, 19.95531778823237801, -5.000000000000000000 ) ) ;
#402 = PERSON_AND_ORGANIZATION ( #1158, #761 ) ;
#403 = CARTESIAN_POINT ( 'NONE',  ( 32.00000000000000000, 35.00000000000000000, 1005.000000000000114 ) ) ;
#404 = CARTESIAN_POINT ( 'NONE',  ( -19.92996652643193656, -19.95531778823256630, -5.000000000000000000 ) ) ;
#405 = ORIENTED_EDGE ( 'NONE', *, *, #1206, .T. ) ;
#406 = VECTOR ( 'NONE', #341, 1000.000000000000000 ) ;
#407 = CIRCLE ( 'NONE', #472, 1.500000000000011768 ) ;
#408 = EDGE_CURVE ( 'NONE', #529, #1133, #800, .T. ) ;
#409 = DIRECTION ( 'NONE',  ( -0.000000000000000000, 0.000000000000000000, -1.000000000000000000 ) ) ;
#410 = CALENDAR_DATE ( 2026, 15, 8 ) ;
#411 = ORIENTED_EDGE ( 'NONE', *, *, #456, .F. ) ;
#412 = ADVANCED_FACE ( 'NONE', ( #688 ), #611, .F. ) ;
#413 = DIRECTION ( 'NONE',  ( -1.000000000000000000, 0.000000000000000000, 0.000000000000000000 ) ) ;
#414 = CARTESIAN_POINT ( 'NONE',  ( -26.76699999999999591, 13.38349999999999795, -4.999999999999893419 ) ) ;
#415 = EDGE_CURVE ( 'NONE', #430, #50, #810, .T. ) ;
#416 = CC_DESIGN_DATE_AND_TIME_ASSIGNMENT ( #121, #308, ( #455 ) ) ;
#417 = ORIENTED_EDGE ( 'NONE', *, *, #546, .T. ) ;
#418 = ORIENTED_EDGE ( 'NONE', *, *, #167, .T. ) ;
#419 = EDGE_CURVE ( 'NONE', #1250, #1141, #20, .T. ) ;
#420 = CARTESIAN_POINT ( 'NONE',  ( -35.00000000000002132, -35.00000000000000000, 1005.000000000000114 ) ) ;
#421 = PLANE ( 'NONE',  #583 ) ;
#422 = ORIENTED_EDGE ( 'NONE', *, *, #937, .F. ) ;
#423 = APPLICATION_CONTEXT ( 'configuration controlled 3d designs of mechanical parts and assemblies' ) ;
#424 = ORIENTED_EDGE ( 'NONE', *, *, #419, .F. ) ;
#425 = APPROVAL_DATE_TIME ( #1249, #1098 ) ;
#426 = ORIENTED_EDGE ( 'NONE', *, *, #210, .T. ) ;
#427 = VECTOR ( 'NONE', #1011, 1000.000000000000000 ) ;
#428 = DIRECTION ( 'NONE',  ( 0.000000000000000000, 0.000000000000000000, 1.000000000000000000 ) ) ;
#429 = LINE ( 'NONE', #1124, #460 ) ;
#430 = VERTEX_POINT ( 'NONE', #496 ) ;
#431 = CIRCLE ( 'NONE', #1080, 3.000000000000002665 ) ;
#432 = ORIENTED_EDGE ( 'NONE', *, *, #340, .F. ) ;
#433 = AXIS2_PLACEMENT_3D ( 'NONE', #366, #980, #765 ) ;
#434 = ORIENTED_EDGE ( 'NONE', *, *, #340, .T. ) ;
#435 = CARTESIAN_POINT ( 'NONE',  ( 26.76699999999999591, 14.88350000000000506, 1000.000000000000000 ) ) ;
#436 = DIRECTION ( 'NONE',  ( -0.000000000000000000, -0.000000000000000000, -1.000000000000000000 ) ) ;
#437 = AXIS2_PLACEMENT_3D ( 'NONE', #60, #1275, #972 ) ;
#438 = EDGE_LOOP ( 'NONE', ( #971, #331, #155, #674, #122, #1030, #424, #845 ) ) ;
#439 = EDGE_LOOP ( 'NONE', ( #952, #693, #1110, #1094 ) ) ;
#440 = EDGE_CURVE ( 'NONE', #30, #318, #1002, .T. ) ;
#441 = DIRECTION ( 'NONE',  ( 0.000000000000000000, -0.000000000000000000, -1.000000000000000000 ) ) ;
#442 = DIRECTION ( 'NONE',  ( -1.000000000000000000, 0.000000000000000000, 0.000000000000000000 ) ) ;
#443 = ORIENTED_EDGE ( 'NONE', *, *, #683, .F. ) ;
#444 = ORIENTED_EDGE ( 'NONE', *, *, #1224, .T. ) ;
#445 = CARTESIAN_POINT ( 'NONE',  ( 0.000000000000000000, 0.000000000000000000, 18.94125000000000014 ) ) ;
#446 = CARTESIAN_POINT ( 'NONE',  ( -26.76700000000000301, 13.38350000000000151, 1000.000000000000000 ) ) ;
#447 = AXIS2_PLACEMENT_3D ( 'NONE', #565, #389, #1186 ) ;
#448 = ORIENTED_EDGE ( 'NONE', *, *, #112, .F. ) ;
#449 = EDGE_CURVE ( 'NONE', #3, #1031, #1212, .T. ) ;
#450 = CARTESIAN_POINT ( 'NONE',  ( -49.92996652643193300, 19.95531778823237801, -5.000000000000000000 ) ) ;
#451 = AXIS2_PLACEMENT_3D ( 'NONE', #189, #914, #393 ) ;
#452 = DIRECTION ( 'NONE',  ( 0.000000000000000000, 0.000000000000000000, -1.000000000000000000 ) ) ;
#453 = EDGE_CURVE ( 'NONE', #819, #461, #1171, .T. ) ;
#454 = EDGE_CURVE ( 'NONE', #126, #1309, #805, .T. ) ;
#455 = SECURITY_CLASSIFICATION ( '', '', #801 ) ;
#456 = EDGE_CURVE ( 'NONE', #113, #769, #934, .T. ) ;
#457 = ORIENTED_EDGE ( 'NONE', *, *, #216, .F. ) ;
#458 = FACE_OUTER_BOUND ( 'NONE', #241, .T. ) ;
#459 = CARTESIAN_POINT ( 'NONE',  ( 26.76699999999999591, 13.38350000000000151, 1000.000000000000000 ) ) ;
#460 = VECTOR ( 'NONE', #1330, 1000.000000000000000 ) ;
#461 = VERTEX_POINT ( 'NONE', #892 ) ;
#462 = CARTESIAN_POINT ( 'NONE',  ( 0.000000000000000000, 0.000000000000000000, 20.94124999999999659 ) ) ;
#463 = CARTESIAN_POINT ( 'NONE',  ( -35.00000000000000000, 35.00000000000000000, 1005.000000000000114 ) ) ;
#464 = DIRECTION ( 'NONE',  ( 0.000000000000000000, -0.000000000000000000, 1.000000000000000000 ) ) ;
#465 = ORIENTED_EDGE ( 'NONE', *, *, #1318, .T. ) ;
#466 = FACE_BOUND ( 'NONE', #1247, .T. ) ;
#467 = CYLINDRICAL_SURFACE ( 'NONE', #656, 3.000000000000002665 ) ;
#468 = EDGE_CURVE ( 'NONE', #285, #208, #951, .T. ) ;
#469 = PLANE ( 'NONE',  #1176 ) ;
#470 = DIRECTION ( 'NONE',  ( -0.000000000000000000, -0.000000000000000000, -1.000000000000000000 ) ) ;
#471 = VECTOR ( 'NONE', #1263, 1000.000000000000000 ) ;
#472 = AXIS2_PLACEMENT_3D ( 'NONE', #860, #751, #46 ) ;
#473 = CARTESIAN_POINT ( 'NONE',  ( 26.76699999999999591, 13.38350000000000151, 1000.000000000000000 ) ) ;
#474 = ORIENTED_EDGE ( 'NONE', *, *, #392, .F. ) ;
#475 = VECTOR ( 'NONE', #156, 1000.000000000000000 ) ;
#476 = CARTESIAN_POINT ( 'NONE',  ( -49.92996652643193300, 19.95531778823237801, 0.000000000000000000 ) ) ;
#477 = CYLINDRICAL_SURFACE ( 'NONE', #866, 1.500000000000004885 ) ;
#478 = EDGE_CURVE ( 'NONE', #769, #126, #793, .T. ) ;
#479 = DIRECTION ( 'NONE',  ( 1.000000000000000000, 0.000000000000000000, 0.000000000000000000 ) ) ;
#480 = DIRECTION ( 'NONE',  ( 1.000000000000000000, 0.000000000000000000, 0.000000000000000000 ) ) ;
#481 = CARTESIAN_POINT ( 'NONE',  ( -28.26699999999999591, 13.38350000000000151, 1000.000000000000000 ) ) ;
#482 = CARTESIAN_POINT ( 'NONE',  ( 19.92996652643172695, 49.95531778823259117, 0.000000000000000000 ) ) ;
#483 =( NAMED_UNIT ( * ) PLANE_ANGLE_UNIT ( ) SI_UNIT ( $, .RADIAN. ) );
#484 = ORIENTED_EDGE ( 'NONE', *, *, #1178, .T. ) ;
#485 = CARTESIAN_POINT ( 'NONE',  ( 19.92996652643172695, -49.95531778823256275, 0.000000000000000000 ) ) ;
#486 = FACE_OUTER_BOUND ( 'NONE', #1280, .T. ) ;
#487 = VECTOR ( 'NONE', #652, 1000.000000000000000 ) ;
#488 = DIRECTION ( 'NONE',  ( 0.000000000000000000, 0.000000000000000000, -1.000000000000000000 ) ) ;
#489 = FACE_BOUND ( 'NONE', #495, .T. ) ;
#490 = ORIENTED_EDGE ( 'NONE', *, *, #626, .F. ) ;
#491 = PLANE ( 'NONE',  #1319 ) ;
#492 = DIRECTION ( 'NONE',  ( -0.000000000000000000, -0.000000000000000000, 1.000000000000000000 ) ) ;
#493 = EDGE_CURVE ( 'NONE', #1173, #323, #41, .T. ) ;
#494 = ADVANCED_FACE ( 'NONE', ( #90 ), #502, .F. ) ;
#495 = EDGE_LOOP ( 'NONE', ( #815, #176 ) ) ;
#496 = CARTESIAN_POINT ( 'NONE',  ( -26.76699999999999591, -13.38349999999999795, -4.999999999999893419 ) ) ;
#497 = CARTESIAN_POINT ( 'NONE',  ( 19.92996652643194366, 19.95531778823259472, -5.000000000000000000 ) ) ;
#498 = VERTEX_POINT ( 'NONE', #843 ) ;
#499 = DIRECTION ( 'NONE',  ( -0.000000000000000000, -0.000000000000000000, -1.000000000000000000 ) ) ;
#500 = CARTESIAN_POINT ( 'NONE',  ( 19.92996652643194366, 13.38349999999999795, -5.000000000000000000 ) ) ;
#501 = ORIENTED_EDGE ( 'NONE', *, *, #493, .T. ) ;
#502 = PLANE ( 'NONE',  #257 ) ;
#503 = DATE_AND_TIME ( #1241, #191 ) ;
#504 = PLANE ( 'NONE',  #184 ) ;
#505 = LINE ( 'NONE', #1322, #832 ) ;
#506 = ORIENTED_EDGE ( 'NONE', *, *, #1099, .F. ) ;
#507 = AXIS2_PLACEMENT_3D ( 'NONE', #581, #782, #480 ) ;
#508 = CARTESIAN_POINT ( 'NONE',  ( 42.00000000000000000, 5.143516556418883322E-15, 20.94124999999999659 ) ) ;
#509 = PERSON_AND_ORGANIZATION ( #1158, #761 ) ;
#510 = EDGE_CURVE ( 'NONE', #666, #802, #781, .T. ) ;
#511 = VERTEX_POINT ( 'NONE', #1257 ) ;
#512 = DIRECTION ( 'NONE',  ( 1.000000000000000000, 0.000000000000000000, 0.000000000000000000 ) ) ;
#513 = CARTESIAN_POINT ( 'NONE',  ( 40.00000000000000000, 4.898587196589413026E-15, 18.94125000000000014 ) ) ;
#514 = EDGE_LOOP ( 'NONE', ( #198, #161, #1127, #125 ) ) ;
#515 = VECTOR ( 'NONE', #2, 1000.000000000000000 ) ;
#516 = CIRCLE ( 'NONE', #1266, 42.00000000000000000 ) ;
#517 = CARTESIAN_POINT ( 'NONE',  ( 0.000000000000000000, 0.000000000000000000, 20.94124999999999659 ) ) ;
#518 = ORIENTED_EDGE ( 'NONE', *, *, #899, .F. ) ;
#519 = CYLINDRICAL_SURFACE ( 'NONE', #1023, 29.99999999999999645 ) ;
#520 = CARTESIAN_POINT ( 'NONE',  ( -38.00000000000000711, 35.00000000000000000, 0.000000000000000000 ) ) ;
#521 = ORIENTED_EDGE ( 'NONE', *, *, #118, .F. ) ;
#522 = VERTEX_POINT ( 'NONE', #246 ) ;
#523 = COORDINATED_UNIVERSAL_TIME_OFFSET ( 3, 0, .AHEAD. ) ;
#524 = ORIENTED_EDGE ( 'NONE', *, *, #33, .F. ) ;
#525 = DIRECTION ( 'NONE',  ( 0.000000000000000000, -0.000000000000000000, 1.000000000000000000 ) ) ;
#526 = DIRECTION ( 'NONE',  ( 0.000000000000000000, 0.000000000000000000, -1.000000000000000000 ) ) ;
#527 = ORIENTED_EDGE ( 'NONE', *, *, #33, .T. ) ;
#528 = ORIENTED_EDGE ( 'NONE', *, *, #213, .T. ) ;
#529 = VERTEX_POINT ( 'NONE', #830 ) ;
#530 = CARTESIAN_POINT ( 'NONE',  ( 26.76699999999999591, 13.38349999999999795, -4.999999999999893419 ) ) ;
#531 = LINE ( 'NONE', #207, #1208 ) ;
#532 = ORIENTED_EDGE ( 'NONE', *, *, #877, .T. ) ;
#533 = EDGE_CURVE ( 'NONE', #1254, #187, #636, .T. ) ;
#534 = CIRCLE ( 'NONE', #1325, 29.99999999999999645 ) ;
#535 = VERTEX_POINT ( 'NONE', #1252 ) ;
#536 = AXIS2_PLACEMENT_3D ( 'NONE', #463, #562, #68 ) ;
#537 = DIRECTION ( 'NONE',  ( 0.000000000000000000, -0.000000000000000000, 1.000000000000000000 ) ) ;
#538 = CARTESIAN_POINT ( 'NONE',  ( -49.92996652643193300, 19.95531778823237801, -5.000000000000000000 ) ) ;
#539 = VERTEX_POINT ( 'NONE', #530 ) ;
#540 = VERTEX_POINT ( 'NONE', #719 ) ;
#541 = DIRECTION ( 'NONE',  ( 0.000000000000000000, 0.000000000000000000, -1.000000000000000000 ) ) ;
#542 = CYLINDRICAL_SURFACE ( 'NONE', #852, 1.499999999999997780 ) ;
#543 = LINE ( 'NONE', #446, #346 ) ;
#544 = VERTEX_POINT ( 'NONE', #335 ) ;
#545 = FACE_OUTER_BOUND ( 'NONE', #605, .T. ) ;
#546 = EDGE_CURVE ( 'NONE', #498, #208, #1137, .T. ) ;
#547 = EDGE_CURVE ( 'NONE', #511, #344, #231, .T. ) ;
#548 = LINE ( 'NONE', #435, #698 ) ;
#549 = CIRCLE ( 'NONE', #13, 29.99999999999999645 ) ;
#550 = EDGE_CURVE ( 'NONE', #1202, #88, #534, .T. ) ;
#551 = ORIENTED_EDGE ( 'NONE', *, *, #1053, .T. ) ;
#552 = DIRECTION ( 'NONE',  ( -0.000000000000000000, 1.000000000000000000, -0.000000000000000000 ) ) ;
#553 = AXIS2_PLACEMENT_3D ( 'NONE', #1042, #746, #938 ) ;
#554 = DIRECTION ( 'NONE',  ( -0.000000000000000000, -0.000000000000000000, -1.000000000000000000 ) ) ;
#555 = ORIENTED_EDGE ( 'NONE', *, *, #49, .F. ) ;
#556 = DIRECTION ( 'NONE',  ( -1.000000000000000000, 0.000000000000000000, 0.000000000000000000 ) ) ;
#557 = CARTESIAN_POINT ( 'NONE',  ( -26.76700000000000301, 13.38350000000000151, 1000.000000000000000 ) ) ;
#558 = CARTESIAN_POINT ( 'NONE',  ( 26.76699999999999591, -13.38349999999999795, 1000.000000000000000 ) ) ;
#559 = AXIS2_PLACEMENT_3D ( 'NONE', #838, #218, #1033 ) ;
#560 = VERTEX_POINT ( 'NONE', #642 ) ;
#561 = CARTESIAN_POINT ( 'NONE',  ( 19.92996652643172695, 49.95531778823259117, -5.000000000000000000 ) ) ;
#562 = DIRECTION ( 'NONE',  ( -0.000000000000000000, -0.000000000000000000, -1.000000000000000000 ) ) ;
#563 = ADVANCED_BREP_SHAPE_REPRESENTATION ( '-хЄры№1', ( #1308, #25 ), #385 ) ;
#564 = CARTESIAN_POINT ( 'NONE',  ( 35.00000000000000711, 4.286263797015737285E-15, -5.000000000000000000 ) ) ;
#565 = CARTESIAN_POINT ( 'NONE',  ( 34.99999999999999289, -35.00000000000000000, -5.000000000000000000 ) ) ;
#566 = DIRECTION ( 'NONE',  ( 3.888497349669684180E-16, 1.000000000000000000, 0.000000000000000000 ) ) ;
#567 = VECTOR ( 'NONE', #250, 1000.000000000000000 ) ;
#568 = EDGE_CURVE ( 'NONE', #306, #498, #634, .T. ) ;
#569 = VERTEX_POINT ( 'NONE', #1044 ) ;
#570 = LINE ( 'NONE', #672, #1331 ) ;
#571 = DIRECTION ( 'NONE',  ( -0.000000000000000000, -0.000000000000000000, -1.000000000000000000 ) ) ;
#572 = DIRECTION ( 'NONE',  ( -1.000000000000000000, 0.000000000000000000, 0.000000000000000000 ) ) ;
#573 = DIRECTION ( 'NONE',  ( 0.000000000000000000, 1.000000000000000000, 0.000000000000000000 ) ) ;
#574 = VECTOR ( 'NONE', #607, 1000.000000000000000 ) ;
#575 = CIRCLE ( 'NONE', #280, 3.000000000000002665 ) ;
#576 = DIRECTION ( 'NONE',  ( -1.000000000000000000, 0.000000000000000000, 0.000000000000000000 ) ) ;
#577 = AXIS2_PLACEMENT_3D ( 'NONE', #755, #1181, #661 ) ;
#578 = DIRECTION ( 'NONE',  ( -3.888497349669684180E-16, 1.000000000000000000, -0.000000000000000000 ) ) ;
#579 = PLANE ( 'NONE',  #809 ) ;
#580 = ORIENTED_EDGE ( 'NONE', *, *, #468, .F. ) ;
#581 = CARTESIAN_POINT ( 'NONE',  ( 19.92996652643194366, 19.95531778823259472, 0.000000000000000000 ) ) ;
#582 = CYLINDRICAL_SURFACE ( 'NONE', #325, 42.00000000000000000 ) ;
#583 = AXIS2_PLACEMENT_3D ( 'NONE', #821, #1237, #720 ) ;
#584 = CYLINDRICAL_SURFACE ( 'NONE', #536, 3.000000000000002665 ) ;
#585 = ADVANCED_FACE ( 'NONE', ( #1244 ), #744, .F. ) ;
#586 = ADVANCED_FACE ( 'NONE', ( #217 ), #1032, .T. ) ;
#587 = EDGE_CURVE ( 'NONE', #1315, #646, #104, .T. ) ;
#588 = EDGE_CURVE ( 'NONE', #344, #894, #543, .T. ) ;
#589 = FACE_OUTER_BOUND ( 'NONE', #19, .T. ) ;
#590 = DIRECTION ( 'NONE',  ( -1.000000000000000000, 0.000000000000000000, 0.000000000000000000 ) ) ;
#591 = EDGE_CURVE ( 'NONE', #1028, #717, #548, .T. ) ;
#592 = ORIENTED_EDGE ( 'NONE', *, *, #371, .T. ) ;
#593 = VECTOR ( 'NONE', #192, 1000.000000000000000 ) ;
#594 = CARTESIAN_POINT ( 'NONE',  ( -38.00000000000000711, 35.00000000000000000, 1005.000000000000114 ) ) ;
#595 = DIRECTION ( 'NONE',  ( -1.000000000000000000, 0.000000000000000000, 0.000000000000000000 ) ) ;
#596 = FACE_OUTER_BOUND ( 'NONE', #687, .T. ) ;
#597 = CIRCLE ( 'NONE', #1194, 3.000000000000002665 ) ;
#598 = CARTESIAN_POINT ( 'NONE',  ( 0.000000000000000000, 0.000000000000000000, 18.94125000000000014 ) ) ;
#599 = ORIENTED_EDGE ( 'NONE', *, *, #818, .T. ) ;
#600 = AXIS2_PLACEMENT_3D ( 'NONE', #994, #1190, #84 ) ;
#601 = DIRECTION ( 'NONE',  ( 0.000000000000000000, 0.000000000000000000, -1.000000000000000000 ) ) ;
#602 = ORIENTED_EDGE ( 'NONE', *, *, #803, .F. ) ;
#603 = CARTESIAN_POINT ( 'NONE',  ( 26.76699999999999591, 13.38350000000000151, 1000.000000000000000 ) ) ;
#604 = DIRECTION ( 'NONE',  ( 1.000000000000000000, -3.888497349669684180E-16, 0.000000000000000000 ) ) ;
#605 = EDGE_LOOP ( 'NONE', ( #960, #1148, #826, #942 ) ) ;
#606 = EDGE_CURVE ( 'NONE', #42, #1216, #431, .T. ) ;
#607 = DIRECTION ( 'NONE',  ( -0.000000000000000000, -0.000000000000000000, 1.000000000000000000 ) ) ;
#608 = DIRECTION ( 'NONE',  ( -0.000000000000000000, -0.000000000000000000, -1.000000000000000000 ) ) ;
#609 = CARTESIAN_POINT ( 'NONE',  ( -26.76700000000000301, -14.88350000000000151, 1000.000000000000000 ) ) ;
#610 = EDGE_LOOP ( 'NONE', ( #1167, #1014, #1125, #324, #660, #705, #501, #195 ) ) ;
#611 = CYLINDRICAL_SURFACE ( 'NONE', #1218, 40.00000000000000000 ) ;
#612 = COORDINATED_UNIVERSAL_TIME_OFFSET ( 3, 0, .AHEAD. ) ;
#613 = ORIENTED_EDGE ( 'NONE', *, *, #606, .F. ) ;
#614 = FACE_OUTER_BOUND ( 'NONE', #829, .T. ) ;
#615 = FACE_OUTER_BOUND ( 'NONE', #372, .T. ) ;
#616 = EDGE_LOOP ( 'NONE', ( #506, #1138, #1240, #527 ) ) ;
#617 = AXIS2_PLACEMENT_3D ( 'NONE', #1008, #694, #307 ) ;
#618 = AXIS2_PLACEMENT_3D ( 'NONE', #731, #537, #736 ) ;
#619 = ORIENTED_EDGE ( 'NONE', *, *, #316, .T. ) ;
#620 = DIRECTION ( 'NONE',  ( -1.000000000000000000, 0.000000000000000000, 0.000000000000000000 ) ) ;
#621 = CARTESIAN_POINT ( 'NONE',  ( -28.26699999999999591, 13.38350000000000151, 1000.000000000000000 ) ) ;
#622 = ORIENTED_EDGE ( 'NONE', *, *, #408, .F. ) ;
#623 = ORIENTED_EDGE ( 'NONE', *, *, #822, .F. ) ;
#624 = APPROVAL_DATE_TIME ( #811, #215 ) ;
#625 = ORIENTED_EDGE ( 'NONE', *, *, #112, .T. ) ;
#626 = EDGE_CURVE ( 'NONE', #569, #1141, #35, .T. ) ;
#627 = CARTESIAN_POINT ( 'NONE',  ( -26.76700000000000301, 13.38350000000000151, 1000.000000000000000 ) ) ;
#628 = CYLINDRICAL_SURFACE ( 'NONE', #559, 42.00000000000000000 ) ;
#629 = EDGE_LOOP ( 'NONE', ( #912, #996, #1207, #630 ) ) ;
#630 = ORIENTED_EDGE ( 'NONE', *, *, #1227, .F. ) ;
#631 = LINE ( 'NONE', #1164, #1220 ) ;
#632 = AXIS2_PLACEMENT_3D ( 'NONE', #1277, #857, #1177 ) ;
#633 = ORIENTED_EDGE ( 'NONE', *, *, #1055, .T. ) ;
#634 = LINE ( 'NONE', #240, #471 ) ;
#635 = ORIENTED_EDGE ( 'NONE', *, *, #1178, .F. ) ;
#636 = CIRCLE ( 'NONE', #169, 35.00000000000000711 ) ;
#637 = ORIENTED_EDGE ( 'NONE', *, *, #1261, .T. ) ;
#638 = AXIS2_PLACEMENT_3D ( 'NONE', #1149, #350, #236 ) ;
#639 = DIRECTION ( 'NONE',  ( 0.000000000000000000, -0.000000000000000000, 1.000000000000000000 ) ) ;
#640 = CARTESIAN_POINT ( 'NONE',  ( 35.00000000000000711, 4.286263797015737285E-15, 18.94125000000000014 ) ) ;
#641 = EDGE_CURVE ( 'NONE', #395, #230, #649, .T. ) ;
#642 = CARTESIAN_POINT ( 'NONE',  ( -19.92996652643171984, -49.95531778823256275, 0.000000000000000000 ) ) ;
#643 = AXIS2_PLACEMENT_3D ( 'NONE', #794, #367, #572 ) ;
#644 = ORIENTED_EDGE ( 'NONE', *, *, #1118, .T. ) ;
#645 = EDGE_CURVE ( 'NONE', #859, #182, #238, .T. ) ;
#646 = VERTEX_POINT ( 'NONE', #321 ) ;
#647 = EDGE_CURVE ( 'NONE', #923, #839, #11, .T. ) ;
#648 = DIRECTION ( 'NONE',  ( 0.000000000000000000, -0.000000000000000000, 1.000000000000000000 ) ) ;
#649 = LINE ( 'NONE', #950, #993 ) ;
#650 = ORIENTED_EDGE ( 'NONE', *, *, #1296, .T. ) ;
#651 = CARTESIAN_POINT ( 'NONE',  ( -19.92996652643172339, 49.95531778823259117, -5.000000000000000000 ) ) ;
#652 = DIRECTION ( 'NONE',  ( -0.000000000000000000, -0.000000000000000000, -1.000000000000000000 ) ) ;
#653 = VECTOR ( 'NONE', #1235, 1000.000000000000000 ) ;
#654 = EDGE_LOOP ( 'NONE', ( #337, #14, #227, #732 ) ) ;
#655 = DIRECTION ( 'NONE',  ( -1.000000000000000000, 0.000000000000000000, 0.000000000000000000 ) ) ;
#656 = AXIS2_PLACEMENT_3D ( 'NONE', #261, #571, #1188 ) ;
#657 = DIRECTION ( 'NONE',  ( 1.000000000000000000, 0.000000000000000000, 0.000000000000000000 ) ) ;
#658 = DIRECTION ( 'NONE',  ( 0.000000000000000000, 0.000000000000000000, 1.000000000000000000 ) ) ;
#659 = VECTOR ( 'NONE', #273, 1000.000000000000000 ) ;
#660 = ORIENTED_EDGE ( 'NONE', *, *, #89, .T. ) ;
#661 = DIRECTION ( 'NONE',  ( 1.000000000000000000, 0.000000000000000000, -0.000000000000000000 ) ) ;
#662 = FACE_OUTER_BOUND ( 'NONE', #722, .T. ) ;
#663 = CYLINDRICAL_SURFACE ( 'NONE', #271, 1.500000000000004885 ) ;
#664 = ADVANCED_FACE ( 'NONE', ( #1068 ), #955, .F. ) ;
#665 = CARTESIAN_POINT ( 'NONE',  ( -26.76700000000000301, -13.38349999999999795, 1000.000000000000000 ) ) ;
#666 = VERTEX_POINT ( 'NONE', #1077 ) ;
#667 = DIRECTION ( 'NONE',  ( -0.000000000000000000, -0.000000000000000000, 1.000000000000000000 ) ) ;
#668 = DIRECTION ( 'NONE',  ( 0.000000000000000000, 1.000000000000000000, 0.000000000000000000 ) ) ;
#669 = CARTESIAN_POINT ( 'NONE',  ( 28.26699999999999946, 13.38350000000000151, 1000.000000000000000 ) ) ;
#670 = DIRECTION ( 'NONE',  ( -1.000000000000000000, 0.000000000000000000, -0.000000000000000000 ) ) ;
#671 = AXIS2_PLACEMENT_3D ( 'NONE', #969, #854, #55 ) ;
#672 = CARTESIAN_POINT ( 'NONE',  ( -26.76700000000000301, -14.88350000000000151, 20.94125000000002146 ) ) ;
#673 = LINE ( 'NONE', #172, #57 ) ;
#674 = ORIENTED_EDGE ( 'NONE', *, *, #680, .F. ) ;
#675 = AXIS2_PLACEMENT_3D ( 'NONE', #837, #940, #28 ) ;
#676 = VECTOR ( 'NONE', #127, 1000.000000000000000 ) ;
#677 = EDGE_CURVE ( 'NONE', #187, #1254, #162, .T. ) ;
#678 = FACE_OUTER_BOUND ( 'NONE', #1106, .T. ) ;
#679 = CARTESIAN_POINT ( 'NONE',  ( -35.00000000000000711, 0.000000000000000000, -5.000000000000000000 ) ) ;
#680 = EDGE_CURVE ( 'NONE', #1031, #1202, #48, .T. ) ;
#681 = ADVANCED_FACE ( 'NONE', ( #256 ), #166, .T. ) ;
#682 = PLANE ( 'NONE',  #147 ) ;
#683 = EDGE_CURVE ( 'NONE', #498, #10, #1052, .T. ) ;
#684 = PLANE ( 'NONE',  #600 ) ;
#685 = CARTESIAN_POINT ( 'NONE',  ( -38.00000000000000711, 35.00000000000000000, -5.000000000000000000 ) ) ;
#686 = CARTESIAN_POINT ( 'NONE',  ( 0.000000000000000000, 0.000000000000000000, 20.94124999999999659 ) ) ;
#687 = EDGE_LOOP ( 'NONE', ( #144, #465, #114, #729 ) ) ;
#688 = FACE_OUTER_BOUND ( 'NONE', #929, .T. ) ;
#689 = CYLINDRICAL_SURFACE ( 'NONE', #643, 35.00000000000000711 ) ;
#690 = ORIENTED_EDGE ( 'NONE', *, *, #89, .F. ) ;
#691 = LINE ( 'NONE', #1293, #882 ) ;
#692 = DIRECTION ( 'NONE',  ( 1.000000000000000000, 0.000000000000000000, 0.000000000000000000 ) ) ;
#693 = ORIENTED_EDGE ( 'NONE', *, *, #917, .T. ) ;
#694 = DIRECTION ( 'NONE',  ( 0.000000000000000000, 0.000000000000000000, -1.000000000000000000 ) ) ;
#695 = PERSON_AND_ORGANIZATION_ROLE ( 'creator' ) ;
#696 = ORIENTED_EDGE ( 'NONE', *, *, #167, .F. ) ;
#697 = LINE ( 'NONE', #403, #427 ) ;
#698 = VECTOR ( 'NONE', #946, 1000.000000000000000 ) ;
#699 = DIRECTION ( 'NONE',  ( 1.000000000000000000, -0.000000000000000000, -0.000000000000000000 ) ) ;
#700 = AXIS2_PLACEMENT_3D ( 'NONE', #557, #874, #1276 ) ;
#701 = CIRCLE ( 'NONE', #149, 3.000000000000002665 ) ;
#702 = EDGE_CURVE ( 'NONE', #1133, #1250, #267, .T. ) ;
#703 = ORIENTED_EDGE ( 'NONE', *, *, #1203, .T. ) ;
#704 = CARTESIAN_POINT ( 'NONE',  ( -19.92996652643193656, 19.95531778823259472, -5.000000000000000000 ) ) ;
#705 = ORIENTED_EDGE ( 'NONE', *, *, #1120, .T. ) ;
#706 = FACE_OUTER_BOUND ( 'NONE', #1153, .T. ) ;
#707 = LINE ( 'NONE', #1115, #362 ) ;
#708 = EDGE_CURVE ( 'NONE', #717, #839, #251, .T. ) ;
#709 = ORIENTED_EDGE ( 'NONE', *, *, #1203, .F. ) ;
#710 = DIRECTION ( 'NONE',  ( -1.000000000000000000, 0.000000000000000000, 0.000000000000000000 ) ) ;
#711 = ORIENTED_EDGE ( 'NONE', *, *, #478, .T. ) ;
#712 = CARTESIAN_POINT ( 'NONE',  ( 26.76699999999999591, 13.38350000000000151, 1000.000000000000000 ) ) ;
#713 = CARTESIAN_POINT ( 'NONE',  ( -35.00000000000000000, 35.00000000000000000, 1005.000000000000114 ) ) ;
#714 = EDGE_LOOP ( 'NONE', ( #580, #474, #443, #417 ) ) ;
#715 = VECTOR ( 'NONE', #296, 1000.000000000000000 ) ;
#716 = CALENDAR_DATE ( 2026, 15, 8 ) ;
#717 = VERTEX_POINT ( 'NONE', #752 ) ;
#718 = DIRECTION ( 'NONE',  ( -1.000000000000000000, 0.000000000000000000, 0.000000000000000000 ) ) ;
#719 = CARTESIAN_POINT ( 'NONE',  ( 35.00000000000000711, 4.286263797015737285E-15, 18.94125000000000014 ) ) ;
#720 = DIRECTION ( 'NONE',  ( 1.000000000000000000, 0.000000000000000000, -0.000000000000000000 ) ) ;
#721 = VERTEX_POINT ( 'NONE', #558 ) ;
#722 = EDGE_LOOP ( 'NONE', ( #94, #528, #637, #45 ) ) ;
#723 = EDGE_CURVE ( 'NONE', #399, #187, #748, .T. ) ;
#724 = PERSON_AND_ORGANIZATION ( #1158, #761 ) ;
#725 = ADVANCED_FACE ( 'NONE', ( #368, #153 ), #1062, .T. ) ;
#726 = ORIENTED_EDGE ( 'NONE', *, *, #587, .F. ) ;
#727 = DIRECTION ( 'NONE',  ( 1.000000000000000000, 0.000000000000000000, 0.000000000000000000 ) ) ;
#728 = ORIENTED_EDGE ( 'NONE', *, *, #1318, .F. ) ;
#729 = ORIENTED_EDGE ( 'NONE', *, *, #440, .F. ) ;
#730 = ORIENTED_EDGE ( 'NONE', *, *, #1161, .F. ) ;
#731 = CARTESIAN_POINT ( 'NONE',  ( 35.00000000000000000, 35.00000000000000000, 0.000000000000000000 ) ) ;
#732 = ORIENTED_EDGE ( 'NONE', *, *, #70, .T. ) ;
#733 = CARTESIAN_POINT ( 'NONE',  ( -19.92996652643193656, 19.95531778823259472, 0.000000000000000000 ) ) ;
#734 = ORIENTED_EDGE ( 'NONE', *, *, #568, .T. ) ;
#735 = ORIENTED_EDGE ( 'NONE', *, *, #588, .T. ) ;
#736 = DIRECTION ( 'NONE',  ( 1.000000000000000000, 0.000000000000000000, 0.000000000000000000 ) ) ;
#737 = CIRCLE ( 'NONE', #1075, 29.99999999999999645 ) ;
#738 = DIRECTION ( 'NONE',  ( 1.000000000000000000, 0.000000000000000000, 0.000000000000000000 ) ) ;
#739 = ADVANCED_FACE ( 'NONE', ( #146 ), #663, .T. ) ;
#740 = EDGE_LOOP ( 'NONE', ( #1041, #26, #625, #29, #1122, #633, #444, #812 ) ) ;
#741 = EDGE_LOOP ( 'NONE', ( #788, #357, #726, #405 ) ) ;
#742 = CIRCLE ( 'NONE', #347, 3.000000000000002665 ) ;
#743 = DIRECTION ( 'NONE',  ( -0.000000000000000000, -0.000000000000000000, -1.000000000000000000 ) ) ;
#744 = CYLINDRICAL_SURFACE ( 'NONE', #909, 3.000000000000002665 ) ;
#745 = ORIENTED_EDGE ( 'NONE', *, *, #510, .T. ) ;
#746 = DIRECTION ( 'NONE',  ( -0.000000000000000000, 0.000000000000000000, -1.000000000000000000 ) ) ;
#747 = VECTOR ( 'NONE', #979, 1000.000000000000000 ) ;
#748 = LINE ( 'NONE', #760, #567 ) ;
#749 = CIRCLE ( 'NONE', #398, 3.000000000000002665 ) ;
#750 = EDGE_LOOP ( 'NONE', ( #1268, #518 ) ) ;
#751 = DIRECTION ( 'NONE',  ( 0.000000000000000000, 0.000000000000000000, -1.000000000000000000 ) ) ;
#752 = CARTESIAN_POINT ( 'NONE',  ( 26.76699999999999591, 14.88350000000000506, 20.94125000000002146 ) ) ;
#753 = CIRCLE ( 'NONE', #775, 3.000000000000002665 ) ;
#754 = ORIENTED_EDGE ( 'NONE', *, *, #242, .T. ) ;
#755 = CARTESIAN_POINT ( 'NONE',  ( 19.92996652643194366, 19.95531778823259472, 0.000000000000000000 ) ) ;
#756 = AXIS2_PLACEMENT_3D ( 'NONE', #704, #601, #905 ) ;
#757 = CIRCLE ( 'NONE', #1172, 1.499999999999997780 ) ;
#758 = DIRECTION ( 'NONE',  ( -0.000000000000000000, -0.000000000000000000, -1.000000000000000000 ) ) ;
#759 = EDGE_CURVE ( 'NONE', #318, #522, #989, .T. ) ;
#760 = CARTESIAN_POINT ( 'NONE',  ( -35.00000000000000711, 0.000000000000000000, 18.94125000000000014 ) ) ;
#761 = ORGANIZATION ( 'UNSPECIFIED', 'UNSPECIFIED', '' ) ;
#762 = ORIENTED_EDGE ( 'NONE', *, *, #547, .T. ) ;
#763 = AXIS2_PLACEMENT_3D ( 'NONE', #598, #297, #200 ) ;
#764 = CARTESIAN_POINT ( 'NONE',  ( 49.92996652643194011, -19.95531778823234959, 0.000000000000000000 ) ) ;
#765 = DIRECTION ( 'NONE',  ( -1.000000000000000000, 0.000000000000000000, 0.000000000000000000 ) ) ;
#766 = CARTESIAN_POINT ( 'NONE',  ( 0.000000000000000000, 0.000000000000000000, 20.94124999999999659 ) ) ;
#767 = CARTESIAN_POINT ( 'NONE',  ( 26.76699999999999591, 13.38350000000000151, 20.94125000000002146 ) ) ;
#768 = DIRECTION ( 'NONE',  ( -1.000000000000000000, 0.000000000000000000, 0.000000000000000000 ) ) ;
#769 = VERTEX_POINT ( 'NONE', #159 ) ;
#770 = FACE_BOUND ( 'NONE', #1113, .T. ) ;
#771 = CARTESIAN_POINT ( 'NONE',  ( 19.92996652643194366, -13.38349999999999618, -5.000000000000000000 ) ) ;
#772 = EDGE_CURVE ( 'NONE', #338, #230, #400, .T. ) ;
#773 = ORIENTED_EDGE ( 'NONE', *, *, #803, .T. ) ;
#774 = PLANE ( 'NONE',  #1297 ) ;
#775 = AXIS2_PLACEMENT_3D ( 'NONE', #290, #1069, #1299 ) ;
#776 = CARTESIAN_POINT ( 'NONE',  ( 32.00000000000000000, 35.00000000000000000, -5.000000000000000000 ) ) ;
#777 = ADVANCED_FACE ( 'NONE', ( #268 ), #491, .F. ) ;
#778 = EDGE_CURVE ( 'NONE', #208, #1288, #796, .T. ) ;
#779 = CC_DESIGN_PERSON_AND_ORGANIZATION_ASSIGNMENT ( #724, #1121, ( #150 ) ) ;
#780 = FACE_OUTER_BOUND ( 'NONE', #714, .T. ) ;
#781 = CIRCLE ( 'NONE', #675, 3.000000000000002665 ) ;
#782 = DIRECTION ( 'NONE',  ( -0.000000000000000000, 0.000000000000000000, -1.000000000000000000 ) ) ;
#783 = LINE ( 'NONE', #80, #247 ) ;
#784 = VECTOR ( 'NONE', #365, 1000.000000000000000 ) ;
#785 = EDGE_LOOP ( 'NONE', ( #225, #551, #434, #964 ) ) ;
#786 = CARTESIAN_POINT ( 'NONE',  ( -40.00000000000000000, 0.000000000000000000, -5.000000000000000000 ) ) ;
#787 = FACE_BOUND ( 'NONE', #1255, .T. ) ;
#788 = ORIENTED_EDGE ( 'NONE', *, *, #1055, .F. ) ;
#789 = DIRECTION ( 'NONE',  ( 1.000000000000000000, 0.000000000000000000, 0.000000000000000000 ) ) ;
#790 = CARTESIAN_POINT ( 'NONE',  ( 42.00000000000000000, 5.143516556418883322E-15, 0.000000000000000000 ) ) ;
#791 = AXIS2_PLACEMENT_3D ( 'NONE', #117, #526, #928 ) ;
#792 = ORIENTED_EDGE ( 'NONE', *, *, #1070, .F. ) ;
#793 = LINE ( 'NONE', #508, #515 ) ;
#794 = CARTESIAN_POINT ( 'NONE',  ( 0.000000000000000000, 0.000000000000000000, 18.94125000000000014 ) ) ;
#795 = VERTEX_POINT ( 'NONE', #1209 ) ;
#796 = LINE ( 'NONE', #1096, #98 ) ;
#797 = CARTESIAN_POINT ( 'NONE',  ( 19.92996652643172695, -49.95531778823256275, -5.000000000000000000 ) ) ;
#798 = AXIS2_PLACEMENT_3D ( 'NONE', #283, #499, #768 ) ;
#799 = ORIENTED_EDGE ( 'NONE', *, *, #921, .T. ) ;
#800 = LINE ( 'NONE', #401, #188 ) ;
#801 = SECURITY_CLASSIFICATION_LEVEL ( 'unclassified' ) ;
#802 = VERTEX_POINT ( 'NONE', #56 ) ;
#803 = EDGE_CURVE ( 'NONE', #721, #511, #185, .T. ) ;
#804 = DIRECTION ( 'NONE',  ( -0.000000000000000000, -0.000000000000000000, 1.000000000000000000 ) ) ;
#805 = CIRCLE ( 'NONE', #850, 42.00000000000000000 ) ;
#806 = CARTESIAN_POINT ( 'NONE',  ( -35.00000000000000000, 35.00000000000000000, 0.000000000000000000 ) ) ;
#807 = AXIS2_PLACEMENT_3D ( 'NONE', #245, #648, #141 ) ;
#808 = EDGE_LOOP ( 'NONE', ( #448, #524, #521, #384 ) ) ;
#809 = AXIS2_PLACEMENT_3D ( 'NONE', #766, #282, #885 ) ;
#810 = LINE ( 'NONE', #1119, #299 ) ;
#811 = DATE_AND_TIME ( #817, #1109 ) ;
#812 = ORIENTED_EDGE ( 'NONE', *, *, #468, .T. ) ;
#813 = DIRECTION ( 'NONE',  ( -0.000000000000000000, -0.000000000000000000, 1.000000000000000000 ) ) ;
#814 = LINE ( 'NONE', #1232, #897 ) ;
#815 = ORIENTED_EDGE ( 'NONE', *, *, #876, .F. ) ;
#816 = AXIS2_PLACEMENT_3D ( 'NONE', #1097, #990, #193 ) ;
#817 = CALENDAR_DATE ( 2026, 15, 8 ) ;
#818 = EDGE_CURVE ( 'NONE', #802, #461, #871, .T. ) ;
#819 = VERTEX_POINT ( 'NONE', #1287 ) ;
#820 = DIRECTION ( 'NONE',  ( 0.000000000000000000, 0.000000000000000000, 1.000000000000000000 ) ) ;
#821 = CARTESIAN_POINT ( 'NONE',  ( -26.76700000000000301, 13.38350000000000151, 1000.000000000000000 ) ) ;
#822 = EDGE_CURVE ( 'NONE', #353, #529, #737, .T. ) ;
#823 = ORIENTED_EDGE ( 'NONE', *, *, #1264, .F. ) ;
#824 = ADVANCED_FACE ( 'NONE', ( #596 ), #1085, .F. ) ;
#825 = ADVANCED_FACE ( 'NONE', ( #678 ), #370, .F. ) ;
#826 = ORIENTED_EDGE ( 'NONE', *, *, #209, .F. ) ;
#827 = CC_DESIGN_PERSON_AND_ORGANIZATION_ASSIGNMENT ( #906, #1126, ( #455 ) ) ;
#828 = COORDINATED_UNIVERSAL_TIME_OFFSET ( 3, 0, .AHEAD. ) ;
#829 = EDGE_LOOP ( 'NONE', ( #327, #745, #599, #1034 ) ) ;
#830 = CARTESIAN_POINT ( 'NONE',  ( 49.92996652643194011, 19.95531778823237801, -5.000000000000000000 ) ) ;
#831 = CARTESIAN_POINT ( 'NONE',  ( -19.92996652643172339, 49.95531778823259117, 0.000000000000000000 ) ) ;
#832 = VECTOR ( 'NONE', #1223, 1000.000000000000000 ) ;
#833 = ORIENTED_EDGE ( 'NONE', *, *, #316, .F. ) ;
#834 = ORIENTED_EDGE ( 'NONE', *, *, #759, .F. ) ;
#835 = APPLICATION_PROTOCOL_DEFINITION ( 'international standard', 'config_control_design', 1994, #275 ) ;
#836 = EDGE_LOOP ( 'NONE', ( #1221, #709, #910, #1117 ) ) ;
#837 = CARTESIAN_POINT ( 'NONE',  ( -35.00000000000002132, -35.00000000000000000, 0.000000000000000000 ) ) ;
#838 = CARTESIAN_POINT ( 'NONE',  ( 0.000000000000000000, 0.000000000000000000, 20.94124999999999659 ) ) ;
#839 = VERTEX_POINT ( 'NONE', #74 ) ;
#840 = EDGE_LOOP ( 'NONE', ( #1143, #1139, #1026, #330 ) ) ;
#841 = DIRECTION ( 'NONE',  ( 3.888497349669684180E-16, -1.000000000000000000, 0.000000000000000000 ) ) ;
#842 = EDGE_CURVE ( 'NONE', #259, #1133, #342, .T. ) ;
#843 = CARTESIAN_POINT ( 'NONE',  ( -28.26700000000000657, -13.38349999999999795, 1000.000000000000000 ) ) ;
#844 = EDGE_CURVE ( 'NONE', #1141, #560, #1313, .T. ) ;
#845 = ORIENTED_EDGE ( 'NONE', *, *, #702, .F. ) ;
#846 = ORIENTED_EDGE ( 'NONE', *, *, #937, .T. ) ;
#847 = DIRECTION ( 'NONE',  ( 0.000000000000000000, 0.000000000000000000, -1.000000000000000000 ) ) ;
#848 = VECTOR ( 'NONE', #576, 1000.000000000000000 ) ;
#849 = CARTESIAN_POINT ( 'NONE',  ( -35.00000000000000000, 35.00000000000000000, 0.000000000000000000 ) ) ;
#850 = AXIS2_PLACEMENT_3D ( 'NONE', #1101, #409, #103 ) ;
#851 = ORIENTED_EDGE ( 'NONE', *, *, #899, .T. ) ;
#852 = AXIS2_PLACEMENT_3D ( 'NONE', #304, #99, #413 ) ;
#853 = CARTESIAN_POINT ( 'NONE',  ( -26.76700000000000301, -13.38349999999999795, 1000.000000000000000 ) ) ;
#854 = DIRECTION ( 'NONE',  ( 0.000000000000000000, 0.000000000000000000, -1.000000000000000000 ) ) ;
#855 = VERTEX_POINT ( 'NONE', #1306 ) ;
#856 = CARTESIAN_POINT ( 'NONE',  ( 49.92996652643194011, -19.95531778823234959, -5.000000000000000000 ) ) ;
#857 = DIRECTION ( 'NONE',  ( 0.000000000000000000, 0.000000000000000000, -1.000000000000000000 ) ) ;
#858 = EDGE_CURVE ( 'NONE', #1146, #569, #549, .T. ) ;
#859 = VERTEX_POINT ( 'NONE', #685 ) ;
#860 = CARTESIAN_POINT ( 'NONE',  ( 26.76699999999999591, -13.38349999999999795, 20.94125000000002146 ) ) ;
#861 = CARTESIAN_POINT ( 'NONE',  ( 0.000000000000000000, 0.000000000000000000, 18.94125000000000014 ) ) ;
#862 = DIRECTION ( 'NONE',  ( 0.000000000000000000, 0.000000000000000000, -1.000000000000000000 ) ) ;
#863 = ORIENTED_EDGE ( 'NONE', *, *, #73, .F. ) ;
#864 = LINE ( 'NONE', #873, #219 ) ;
#865 = AXIS2_PLACEMENT_3D ( 'NONE', #83, #202, #1229 ) ;
#866 = AXIS2_PLACEMENT_3D ( 'NONE', #379, #758, #1074 ) ;
#867 = VECTOR ( 'NONE', #608, 1000.000000000000000 ) ;
#868 = CARTESIAN_POINT ( 'NONE',  ( -19.92996652643172339, 49.95531778823259117, -5.000000000000000000 ) ) ;
#869 = DIRECTION ( 'NONE',  ( 0.000000000000000000, -1.000000000000000000, 0.000000000000000000 ) ) ;
#870 = DIRECTION ( 'NONE',  ( -1.000000000000000000, 0.000000000000000000, 0.000000000000000000 ) ) ;
#871 = LINE ( 'NONE', #86, #205 ) ;
#872 = VERTEX_POINT ( 'NONE', #978 ) ;
#873 = CARTESIAN_POINT ( 'NONE',  ( -19.92996652643171984, -49.95531778823256275, -5.000000000000000000 ) ) ;
#874 = DIRECTION ( 'NONE',  ( 0.000000000000000000, -1.000000000000000000, 0.000000000000000000 ) ) ;
#875 = DIRECTION ( 'NONE',  ( 0.000000000000000000, -0.000000000000000000, 1.000000000000000000 ) ) ;
#876 = EDGE_CURVE ( 'NONE', #461, #819, #1013, .T. ) ;
#877 = EDGE_CURVE ( 'NONE', #560, #1031, #1189, .T. ) ;
#878 = DIRECTION ( 'NONE',  ( 0.000000000000000000, 0.000000000000000000, -1.000000000000000000 ) ) ;
#879 = DIRECTION ( 'NONE',  ( 0.000000000000000000, 0.000000000000000000, -1.000000000000000000 ) ) ;
#880 = LINE ( 'NONE', #1290, #1243 ) ;
#881 = CARTESIAN_POINT ( 'NONE',  ( 49.92996652643194011, 19.95531778823237801, -5.000000000000000000 ) ) ;
#882 = VECTOR ( 'NONE', #180, 1000.000000000000000 ) ;
#883 = FACE_OUTER_BOUND ( 'NONE', #930, .T. ) ;
#884 = DIRECTION ( 'NONE',  ( -1.000000000000000000, 0.000000000000000000, 0.000000000000000000 ) ) ;
#885 = DIRECTION ( 'NONE',  ( -1.000000000000000000, 0.000000000000000000, -0.000000000000000000 ) ) ;
#886 = AXIS2_PLACEMENT_3D ( 'NONE', #23, #879, #1294 ) ;
#887 = EDGE_LOOP ( 'NONE', ( #102, #792, #17, #1 ) ) ;
#888 = DIRECTION ( 'NONE',  ( 1.000000000000000000, 0.000000000000000000, 0.000000000000000000 ) ) ;
#889 = PLANE ( 'NONE',  #334 ) ;
#890 = CC_DESIGN_APPROVAL ( #1057, ( #1320 ) ) ;
#891 = ORIENTED_EDGE ( 'NONE', *, *, #66, .F. ) ;
#892 = CARTESIAN_POINT ( 'NONE',  ( -38.00000000000002842, -35.00000000000000000, -5.000000000000000000 ) ) ;
#893 = LINE ( 'NONE', #968, #133 ) ;
#894 = VERTEX_POINT ( 'NONE', #665 ) ;
#895 = DIRECTION ( 'NONE',  ( -0.000000000000000000, 0.000000000000000000, 1.000000000000000000 ) ) ;
#896 = CYLINDRICAL_SURFACE ( 'NONE', #129, 29.99999999999999645 ) ;
#897 = VECTOR ( 'NONE', #312, 1000.000000000000000 ) ;
#898 = ORIENTED_EDGE ( 'NONE', *, *, #680, .T. ) ;
#899 = EDGE_CURVE ( 'NONE', #395, #935, #753, .T. ) ;
#900 = LINE ( 'NONE', #1316, #973 ) ;
#901 = DIRECTION ( 'NONE',  ( 1.000000000000000000, 0.000000000000000000, 0.000000000000000000 ) ) ;
#902 = CARTESIAN_POINT ( 'NONE',  ( 19.92996652643194366, 19.95531778823259472, -5.000000000000000000 ) ) ;
#903 = FACE_OUTER_BOUND ( 'NONE', #654, .T. ) ;
#904 = ORIENTED_EDGE ( 'NONE', *, *, #1248, .T. ) ;
#905 = DIRECTION ( 'NONE',  ( -1.000000000000000000, 0.000000000000000000, 0.000000000000000000 ) ) ;
#906 = PERSON_AND_ORGANIZATION ( #1158, #761 ) ;
#907 = ORIENTED_EDGE ( 'NONE', *, *, #645, .T. ) ;
#908 = LINE ( 'NONE', #1329, #911 ) ;
#909 = AXIS2_PLACEMENT_3D ( 'NONE', #1027, #328, #139 ) ;
#910 = ORIENTED_EDGE ( 'NONE', *, *, #115, .F. ) ;
#911 = VECTOR ( 'NONE', #813, 1000.000000000000000 ) ;
#912 = ORIENTED_EDGE ( 'NONE', *, *, #1054, .T. ) ;
#913 = LOCAL_TIME ( 12, 3, 46.00000000000000000, #1219 ) ;
#914 = DIRECTION ( 'NONE',  ( 0.000000000000000000, 0.000000000000000000, -1.000000000000000000 ) ) ;
#915 = APPROVAL_ROLE ( '' ) ;
#916 = VERTEX_POINT ( 'NONE', #380 ) ;
#917 = EDGE_CURVE ( 'NONE', #666, #819, #691, .T. ) ;
#918 = CYLINDRICAL_SURFACE ( 'NONE', #212, 3.000000000000002665 ) ;
#919 = ADVANCED_FACE ( 'NONE', ( #589, #376 ), #774, .F. ) ;
#920 = FACE_OUTER_BOUND ( 'NONE', #1245, .T. ) ;
#921 = EDGE_CURVE ( 'NONE', #539, #872, #945, .T. ) ;
#922 = ORIENTED_EDGE ( 'NONE', *, *, #73, .T. ) ;
#923 = VERTEX_POINT ( 'NONE', #1020 ) ;
#924 = PERSON_AND_ORGANIZATION ( #1158, #761 ) ;
#925 = EDGE_LOOP ( 'NONE', ( #276, #799, #891, #773 ) ) ;
#926 = PRODUCT_DEFINITION_SHAPE ( 'NONE', 'NONE',  #1320 ) ;
#927 = DIRECTION ( 'NONE',  ( 0.000000000000000000, 0.000000000000000000, -1.000000000000000000 ) ) ;
#928 = DIRECTION ( 'NONE',  ( -1.000000000000000000, 0.000000000000000000, 0.000000000000000000 ) ) ;
#929 = EDGE_LOOP ( 'NONE', ( #728, #140, #1136, #1012 ) ) ;
#930 = EDGE_LOOP ( 'NONE', ( #1323, #490, #148, #1001 ) ) ;
#931 = ORIENTED_EDGE ( 'NONE', *, *, #1156, .F. ) ;
#932 = CARTESIAN_POINT ( 'NONE',  ( -35.00000000000000000, 35.00000000000000000, -5.000000000000000000 ) ) ;
#933 = CARTESIAN_POINT ( 'NONE',  ( -26.76700000000000301, 14.88350000000000506, 1000.000000000000000 ) ) ;
#934 = CIRCLE ( 'NONE', #361, 42.00000000000000000 ) ;
#935 = VERTEX_POINT ( 'NONE', #1222 ) ;
#936 = ORIENTED_EDGE ( 'NONE', *, *, #547, .F. ) ;
#937 = EDGE_CURVE ( 'NONE', #294, #91, #697, .T. ) ;
#938 = DIRECTION ( 'NONE',  ( 1.000000000000000000, 0.000000000000000000, 0.000000000000000000 ) ) ;
#939 = PRODUCT_DEFINITION_FORMATION_WITH_SPECIFIED_SOURCE ( 'ANY', '', #150, .NOT_KNOWN. ) ;
#940 = DIRECTION ( 'NONE',  ( 0.000000000000000000, -0.000000000000000000, 1.000000000000000000 ) ) ;
#941 = EDGE_LOOP ( 'NONE', ( #833, #484, #846, #922 ) ) ;
#942 = ORIENTED_EDGE ( 'NONE', *, *, #1302, .T. ) ;
#943 = EDGE_CURVE ( 'NONE', #1173, #1202, #1043, .T. ) ;
#944 = CARTESIAN_POINT ( 'NONE',  ( 19.92996652643172339, -49.95531778823256275, 0.000000000000000000 ) ) ;
#945 = LINE ( 'NONE', #206, #715 ) ;
#946 = DIRECTION ( 'NONE',  ( -0.000000000000000000, -0.000000000000000000, -1.000000000000000000 ) ) ;
#947 = ORIENTED_EDGE ( 'NONE', *, *, #976, .T. ) ;
#948 = DIRECTION ( 'NONE',  ( 0.000000000000000000, 0.000000000000000000, -1.000000000000000000 ) ) ;
#949 = AXIS2_PLACEMENT_3D ( 'NONE', #1056, #862, #1184 ) ;
#950 = CARTESIAN_POINT ( 'NONE',  ( 38.00000000000000000, -35.00000000000000000, 1005.000000000000114 ) ) ;
#951 = CIRCLE ( 'NONE', #451, 1.500000000000004885 ) ;
#952 = ORIENTED_EDGE ( 'NONE', *, *, #369, .T. ) ;
#953 = CIRCLE ( 'NONE', #618, 3.000000000000002665 ) ;
#954 = LINE ( 'NONE', #651, #676 ) ;
#955 = PLANE ( 'NONE',  #378 ) ;
#956 = ADVANCED_FACE ( 'NONE', ( #4 ), #504, .T. ) ;
#957 = EDGE_CURVE ( 'NONE', #230, #338, #143, .T. ) ;
#958 = CC_DESIGN_PERSON_AND_ORGANIZATION_ASSIGNMENT ( #1326, #203, ( #1320 ) ) ;
#959 = EDGE_CURVE ( 'NONE', #540, #1254, #32, .T. ) ;
#960 = ORIENTED_EDGE ( 'NONE', *, *, #66, .T. ) ;
#961 = CARTESIAN_POINT ( 'NONE',  ( -26.76700000000000301, 13.38350000000000151, 20.94125000000002146 ) ) ;
#962 = FACE_OUTER_BOUND ( 'NONE', #629, .T. ) ;
#963 = CARTESIAN_POINT ( 'NONE',  ( -26.76700000000000301, -13.38349999999999795, 1000.000000000000000 ) ) ;
#964 = ORIENTED_EDGE ( 'NONE', *, *, #454, .F. ) ;
#965 = FACE_BOUND ( 'NONE', #234, .T. ) ;
#966 = PLANE ( 'NONE',  #21 ) ;
#967 = AXIS2_PLACEMENT_3D ( 'NONE', #963, #658, #870 ) ;
#968 = CARTESIAN_POINT ( 'NONE',  ( -26.76700000000000301, -13.38349999999999795, 1000.000000000000000 ) ) ;
#969 = CARTESIAN_POINT ( 'NONE',  ( 0.000000000000000000, 0.000000000000000000, -5.000000000000000000 ) ) ;
#970 = DIRECTION ( 'NONE',  ( -0.000000000000000000, -0.000000000000000000, -1.000000000000000000 ) ) ;
#971 = ORIENTED_EDGE ( 'NONE', *, *, #842, .F. ) ;
#972 = DIRECTION ( 'NONE',  ( -1.000000000000000000, 0.000000000000000000, 0.000000000000000000 ) ) ;
#973 = VECTOR ( 'NONE', #287, 1000.000000000000000 ) ;
#974 = CIRCLE ( 'NONE', #1195, 1.499999999999997780 ) ;
#975 = LINE ( 'NONE', #1282, #659 ) ;
#976 = EDGE_CURVE ( 'NONE', #344, #50, #199, .T. ) ;
#977 = FACE_OUTER_BOUND ( 'NONE', #1010, .T. ) ;
#978 = CARTESIAN_POINT ( 'NONE',  ( 26.76699999999999946, -13.38349999999999618, -5.000000000000000000 ) ) ;
#979 = DIRECTION ( 'NONE',  ( 1.000000000000000000, 0.000000000000000000, 0.000000000000000000 ) ) ;
#980 = DIRECTION ( 'NONE',  ( 0.000000000000000000, 0.000000000000000000, 1.000000000000000000 ) ) ;
#981 = FACE_BOUND ( 'NONE', #1234, .T. ) ;
#982 = ORIENTED_EDGE ( 'NONE', *, *, #1163, .T. ) ;
#983 = DIRECTION ( 'NONE',  ( -1.000000000000000000, 0.000000000000000000, 0.000000000000000000 ) ) ;
#984 = DIRECTION ( 'NONE',  ( 0.000000000000000000, 0.000000000000000000, -1.000000000000000000 ) ) ;
#985 = CARTESIAN_POINT ( 'NONE',  ( 19.92996652643172695, 49.95531778823259117, -5.000000000000000000 ) ) ;
#986 = CARTESIAN_POINT ( 'NONE',  ( 0.000000000000000000, 0.000000000000000000, 0.000000000000000000 ) ) ;
#987 = EDGE_LOOP ( 'NONE', ( #85, #263, #555, #1045 ) ) ;
#988 = DIRECTION ( 'NONE',  ( 0.000000000000000000, -0.000000000000000000, 1.000000000000000000 ) ) ;
#989 = CIRCLE ( 'NONE', #632, 40.00000000000000000 ) ;
#990 = DIRECTION ( 'NONE',  ( 0.000000000000000000, 0.000000000000000000, -1.000000000000000000 ) ) ;
#991 = ORIENTED_EDGE ( 'NONE', *, *, #1302, .F. ) ;
#992 = CARTESIAN_POINT ( 'NONE',  ( -35.00000000000000711, 0.000000000000000000, 18.94125000000000014 ) ) ;
#993 = VECTOR ( 'NONE', #40, 1000.000000000000000 ) ;
#994 = CARTESIAN_POINT ( 'NONE',  ( -26.76700000000000301, 13.38350000000000151, 1000.000000000000000 ) ) ;
#995 = VECTOR ( 'NONE', #692, 1000.000000000000000 ) ;
#996 = ORIENTED_EDGE ( 'NONE', *, *, #641, .T. ) ;
#997 = DIRECTION ( 'NONE',  ( -0.000000000000000000, 1.000000000000000000, -0.000000000000000000 ) ) ;
#998 = DIRECTION ( 'NONE',  ( -1.000000000000000000, -0.000000000000000000, -0.000000000000000000 ) ) ;
#999 = ADVANCED_FACE ( 'NONE', ( #1123 ), #542, .T. ) ;
#1000 = VECTOR ( 'NONE', #63, 1000.000000000000000 ) ;
#1001 = ORIENTED_EDGE ( 'NONE', *, *, #1021, .T. ) ;
#1002 = LINE ( 'NONE', #1092, #1151 ) ;
#1003 = APPROVAL_STATUS ( 'not_yet_approved' ) ;
#1004 = ORIENTED_EDGE ( 'NONE', *, *, #1224, .F. ) ;
#1005 = CARTESIAN_POINT ( 'NONE',  ( -26.76700000000000301, 13.38350000000000151, 1000.000000000000000 ) ) ;
#1006 = LINE ( 'NONE', #93, #747 ) ;
#1007 = ORIENTED_EDGE ( 'NONE', *, *, #533, .T. ) ;
#1008 = CARTESIAN_POINT ( 'NONE',  ( -35.00000000000002132, -35.00000000000000000, -5.000000000000000000 ) ) ;
#1009 = APPROVAL_STATUS ( 'not_yet_approved' ) ;
#1010 = EDGE_LOOP ( 'NONE', ( #982, #223, #111, #252 ) ) ;
#1011 = DIRECTION ( 'NONE',  ( -0.000000000000000000, -0.000000000000000000, -1.000000000000000000 ) ) ;
#1012 = ORIENTED_EDGE ( 'NONE', *, *, #759, .T. ) ;
#1013 = CIRCLE ( 'NONE', #1238, 3.000000000000002665 ) ;
#1014 = ORIENTED_EDGE ( 'NONE', *, *, #1264, .T. ) ;
#1015 = CARTESIAN_POINT ( 'NONE',  ( 0.000000000000000000, 0.000000000000000000, 18.94125000000000014 ) ) ;
#1016 = EDGE_CURVE ( 'NONE', #511, #539, #1321, .T. ) ;
#1017 = PERSON_AND_ORGANIZATION ( #1158, #761 ) ;
#1018 = ADVANCED_FACE ( 'NONE', ( #706 ), #519, .T. ) ;
#1019 = ORIENTED_EDGE ( 'NONE', *, *, #1053, .F. ) ;
#1020 = CARTESIAN_POINT ( 'NONE',  ( 28.26699999999999946, 13.38350000000000151, 1000.000000000000000 ) ) ;
#1021 = EDGE_CURVE ( 'NONE', #1146, #1250, #908, .T. ) ;
#1022 = LINE ( 'NONE', #621, #67 ) ;
#1023 = AXIS2_PLACEMENT_3D ( 'NONE', #902, #804, #512 ) ;
#1024 = ORIENTED_EDGE ( 'NONE', *, *, #254, .F. ) ;
#1025 = APPROVAL_PERSON_ORGANIZATION ( #509, #1057, #1135 ) ;
#1026 = ORIENTED_EDGE ( 'NONE', *, *, #242, .F. ) ;
#1027 = CARTESIAN_POINT ( 'NONE',  ( -35.00000000000002132, -35.00000000000000000, 1005.000000000000114 ) ) ;
#1028 = VERTEX_POINT ( 'NONE', #1231 ) ;
#1029 = ORIENTED_EDGE ( 'NONE', *, *, #369, .F. ) ;
#1030 = ORIENTED_EDGE ( 'NONE', *, *, #844, .F. ) ;
#1031 = VERTEX_POINT ( 'NONE', #311 ) ;
#1032 = CYLINDRICAL_SURFACE ( 'NONE', #1130, 29.99999999999999645 ) ;
#1033 = DIRECTION ( 'NONE',  ( -1.000000000000000000, 0.000000000000000000, 0.000000000000000000 ) ) ;
#1034 = ORIENTED_EDGE ( 'NONE', *, *, #876, .T. ) ;
#1035 = ORIENTED_EDGE ( 'NONE', *, *, #1161, .T. ) ;
#1036 = CARTESIAN_POINT ( 'NONE',  ( 35.00000000000000000, 35.00000000000000000, 1005.000000000000114 ) ) ;
#1037 = DIRECTION ( 'NONE',  ( -0.000000000000000000, -0.000000000000000000, 1.000000000000000000 ) ) ;
#1038 = AXIS2_PLACEMENT_3D ( 'NONE', #1036, #743, #253 ) ;
#1039 = ORIENTED_EDGE ( 'NONE', *, *, #209, .T. ) ;
#1040 = ADVANCED_FACE ( 'NONE', ( #614 ), #918, .F. ) ;
#1041 = ORIENTED_EDGE ( 'NONE', *, *, #778, .T. ) ;
#1042 = CARTESIAN_POINT ( 'NONE',  ( 0.000000000000000000, 0.000000000000000000, 0.000000000000000000 ) ) ;
#1043 = LINE ( 'NONE', #108, #653 ) ;
#1044 = CARTESIAN_POINT ( 'NONE',  ( 19.92996652643172339, -49.95531778823256275, -5.000000000000000000 ) ) ;
#1045 = ORIENTED_EDGE ( 'NONE', *, *, #1070, .T. ) ;
#1046 = CIRCLE ( 'NONE', #816, 29.99999999999999645 ) ;
#1047 = ORIENTED_EDGE ( 'NONE', *, *, #408, .T. ) ;
#1048 = CYLINDRICAL_SURFACE ( 'NONE', #1038, 3.000000000000002665 ) ;
#1049 = DIRECTION ( 'NONE',  ( 1.000000000000000000, 0.000000000000000000, 0.000000000000000000 ) ) ;
#1050 = ORIENTED_EDGE ( 'NONE', *, *, #677, .T. ) ;
#1051 = DIRECTION ( 'NONE',  ( 0.000000000000000000, 1.000000000000000000, 0.000000000000000000 ) ) ;
#1052 = CIRCLE ( 'NONE', #967, 1.500000000000004885 ) ;
#1053 = EDGE_CURVE ( 'NONE', #769, #113, #516, .T. ) ;
#1054 = EDGE_CURVE ( 'NONE', #935, #395, #575, .T. ) ;
#1055 = EDGE_CURVE ( 'NONE', #916, #795, #407, .T. ) ;
#1056 = CARTESIAN_POINT ( 'NONE',  ( 0.000000000000000000, 0.000000000000000000, 18.94125000000000014 ) ) ;
#1057 = APPROVAL ( #1003, 'UNSPECIFIED' ) ;
#1058 = CIRCLE ( 'NONE', #1279, 40.00000000000000000 ) ;
#1059 = EDGE_LOOP ( 'NONE', ( #1004, #7, #1260, #1191 ) ) ;
#1060 = DIRECTION ( 'NONE',  ( -0.000000000000000000, -0.000000000000000000, -1.000000000000000000 ) ) ;
#1061 = LINE ( 'NONE', #594, #1102 ) ;
#1062 = PLANE ( 'NONE',  #949 ) ;
#1063 = EDGE_LOOP ( 'NONE', ( #411, #1019 ) ) ;
#1064 = DIRECTION ( 'NONE',  ( -0.000000000000000000, -0.000000000000000000, -1.000000000000000000 ) ) ;
#1065 = DIRECTION ( 'NONE',  ( -1.000000000000000000, 0.000000000000000000, 0.000000000000000000 ) ) ;
#1066 = VECTOR ( 'NONE', #590, 1000.000000000000000 ) ;
#1067 = CARTESIAN_POINT ( 'NONE',  ( 49.92996652643194011, 19.95531778823237801, -5.000000000000000000 ) ) ;
#1068 = FACE_OUTER_BOUND ( 'NONE', #836, .T. ) ;
#1069 = DIRECTION ( 'NONE',  ( 0.000000000000000000, -0.000000000000000000, 1.000000000000000000 ) ) ;
#1070 = EDGE_CURVE ( 'NONE', #323, #88, #954, .T. ) ;
#1071 = EDGE_LOOP ( 'NONE', ( #1180, #391 ) ) ;
#1072 = ADVANCED_FACE ( 'NONE', ( #458 ), #1048, .F. ) ;
#1073 = CYLINDRICAL_SURFACE ( 'NONE', #437, 1.500000000000011768 ) ;
#1074 = DIRECTION ( 'NONE',  ( -1.000000000000000000, 0.000000000000000000, 0.000000000000000000 ) ) ;
#1075 = AXIS2_PLACEMENT_3D ( 'NONE', #168, #1078, #888 ) ;
#1076 = FACE_BOUND ( 'NONE', #132, .T. ) ;
#1077 = CARTESIAN_POINT ( 'NONE',  ( -32.00000000000002132, -35.00000000000000000, 0.000000000000000000 ) ) ;
#1078 = DIRECTION ( 'NONE',  ( -0.000000000000000000, 0.000000000000000000, -1.000000000000000000 ) ) ;
#1079 = LINE ( 'NONE', #1174, #475 ) ;
#1080 = AXIS2_PLACEMENT_3D ( 'NONE', #849, #525, #727 ) ;
#1081 = CIRCLE ( 'NONE', #106, 35.00000000000000711 ) ;
#1082 = CARTESIAN_POINT ( 'NONE',  ( -26.76700000000000301, -14.88350000000000151, 1000.000000000000000 ) ) ;
#1083 = DIRECTION ( 'NONE',  ( 1.000000000000000000, 0.000000000000000000, -0.000000000000000000 ) ) ;
#1084 = ORIENTED_EDGE ( 'NONE', *, *, #456, .T. ) ;
#1085 = CYLINDRICAL_SURFACE ( 'NONE', #1259, 40.00000000000000000 ) ;
#1086 = LINE ( 'NONE', #500, #995 ) ;
#1087 = CARTESIAN_POINT ( 'NONE',  ( 19.92996652643172695, 49.95531778823259117, -5.000000000000000000 ) ) ;
#1088 = APPLICATION_PROTOCOL_DEFINITION ( 'international standard', 'config_control_design', 1994, #423 ) ;
#1089 = DIRECTION ( 'NONE',  ( -1.000000000000000000, 0.000000000000000000, 0.000000000000000000 ) ) ;
#1090 = DIRECTION ( 'NONE',  ( -1.000000000000000000, 0.000000000000000000, 0.000000000000000000 ) ) ;
#1091 = ORIENTED_EDGE ( 'NONE', *, *, #194, .T. ) ;
#1092 = CARTESIAN_POINT ( 'NONE',  ( -40.00000000000000000, 0.000000000000000000, 18.94125000000000014 ) ) ;
#1093 = CARTESIAN_POINT ( 'NONE',  ( -42.00000000000000000, 0.000000000000000000, 0.000000000000000000 ) ) ;
#1094 = ORIENTED_EDGE ( 'NONE', *, *, #818, .F. ) ;
#1095 = ADVANCED_FACE ( 'NONE', ( #1269 ), #145, .F. ) ;
#1096 = CARTESIAN_POINT ( 'NONE',  ( -28.26699999999999591, 13.38350000000000151, 20.94125000000002146 ) ) ;
#1097 = CARTESIAN_POINT ( 'NONE',  ( -19.92996652643193656, -19.95531778823256630, -5.000000000000000000 ) ) ;
#1098 = APPROVAL ( #1103, 'UNSPECIFIED' ) ;
#1099 = EDGE_CURVE ( 'NONE', #1288, #855, #974, .T. ) ;
#1100 = EDGE_LOOP ( 'NONE', ( #214, #635 ) ) ;
#1101 = CARTESIAN_POINT ( 'NONE',  ( 0.000000000000000000, 0.000000000000000000, 0.000000000000000000 ) ) ;
#1102 = VECTOR ( 'NONE', #1111, 1000.000000000000000 ) ;
#1103 = APPROVAL_STATUS ( 'not_yet_approved' ) ;
#1104 = VECTOR ( 'NONE', #1065, 1000.000000000000000 ) ;
#1105 = LOCAL_TIME ( 12, 3, 46.00000000000000000, #9 ) ;
#1106 = EDGE_LOOP ( 'NONE', ( #289, #851, #375, #190 ) ) ;
#1107 = DIRECTION ( 'NONE',  ( 0.000000000000000000, 0.000000000000000000, -1.000000000000000000 ) ) ;
#1108 = DIRECTION ( 'NONE',  ( 1.000000000000000000, 0.000000000000000000, 0.000000000000000000 ) ) ;
#1109 = LOCAL_TIME ( 12, 3, 46.00000000000000000, #828 ) ;
#1110 = ORIENTED_EDGE ( 'NONE', *, *, #453, .T. ) ;
#1111 = DIRECTION ( 'NONE',  ( -0.000000000000000000, -0.000000000000000000, -1.000000000000000000 ) ) ;
#1112 = DATE_TIME_ROLE ( 'creation_date' ) ;
#1113 = EDGE_LOOP ( 'NONE', ( #1274, #59 ) ) ;
#1114 = DIRECTION ( 'NONE',  ( 1.000000000000000000, 0.000000000000000000, -0.000000000000000000 ) ) ;
#1115 = CARTESIAN_POINT ( 'NONE',  ( -32.00000000000000000, 35.00000000000000000, 1005.000000000000114 ) ) ;
#1116 = EDGE_CURVE ( 'NONE', #1309, #126, #1327, .T. ) ;
#1117 = ORIENTED_EDGE ( 'NONE', *, *, #626, .T. ) ;
#1118 = EDGE_CURVE ( 'NONE', #294, #119, #953, .T. ) ;
#1119 = CARTESIAN_POINT ( 'NONE',  ( -26.76699999999999591, 19.95531778823259472, -5.000000000000000000 ) ) ;
#1120 = EDGE_CURVE ( 'NONE', #3, #1173, #27, .T. ) ;
#1121 = PERSON_AND_ORGANIZATION_ROLE ( 'design_owner' ) ;
#1122 = ORIENTED_EDGE ( 'NONE', *, *, #1156, .T. ) ;
#1123 = FACE_OUTER_BOUND ( 'NONE', #616, .T. ) ;
#1124 = CARTESIAN_POINT ( 'NONE',  ( 19.92996652643172695, 49.95531778823259117, -5.000000000000000000 ) ) ;
#1125 = ORIENTED_EDGE ( 'NONE', *, *, #858, .T. ) ;
#1126 = PERSON_AND_ORGANIZATION_ROLE ( 'classification_officer' ) ;
#1127 = ORIENTED_EDGE ( 'NONE', *, *, #723, .T. ) ;
#1128 = DIRECTION ( 'NONE',  ( -1.000000000000000000, 0.000000000000000000, 0.000000000000000000 ) ) ;
#1129 = DIRECTION ( 'NONE',  ( -1.000000000000000000, 0.000000000000000000, 0.000000000000000000 ) ) ;
#1130 = AXIS2_PLACEMENT_3D ( 'NONE', #116, #1037, #738 ) ;
#1131 = CARTESIAN_POINT ( 'NONE',  ( -49.92996652643193300, -19.95531778823256630, -5.000000000000000000 ) ) ;
#1132 = AXIS2_PLACEMENT_3D ( 'NONE', #355, #229, #441 ) ;
#1133 = VERTEX_POINT ( 'NONE', #1272 ) ;
#1134 = EDGE_LOOP ( 'NONE', ( #947, #1091, #1305, #762 ) ) ;
#1135 = APPROVAL_ROLE ( '' ) ;
#1136 = ORIENTED_EDGE ( 'NONE', *, *, #440, .T. ) ;
#1137 = LINE ( 'NONE', #22, #211 ) ;
#1138 = ORIENTED_EDGE ( 'NONE', *, *, #70, .F. ) ;
#1139 = ORIENTED_EDGE ( 'NONE', *, *, #591, .F. ) ;
#1140 = AXIS2_PLACEMENT_3D ( 'NONE', #713, #322, #100 ) ;
#1141 = VERTEX_POINT ( 'NONE', #944 ) ;
#1142 = FACE_OUTER_BOUND ( 'NONE', #808, .T. ) ;
#1143 = ORIENTED_EDGE ( 'NONE', *, *, #708, .F. ) ;
#1144 = ADVANCED_FACE ( 'NONE', ( #1142 ), #43, .F. ) ;
#1145 = CARTESIAN_POINT ( 'NONE',  ( 0.000000000000000000, 0.000000000000000000, -5.000000000000000000 ) ) ;
#1146 = VERTEX_POINT ( 'NONE', #856 ) ;
#1147 = VECTOR ( 'NONE', #1286, 1000.000000000000000 ) ;
#1148 = ORIENTED_EDGE ( 'NONE', *, *, #254, .T. ) ;
#1149 = CARTESIAN_POINT ( 'NONE',  ( 28.26700000000000301, 13.38350000000000151, 1000.000000000000000 ) ) ;
#1150 = DIRECTION ( 'NONE',  ( 0.000000000000000000, 0.000000000000000000, -1.000000000000000000 ) ) ;
#1151 = VECTOR ( 'NONE', #1310, 1000.000000000000000 ) ;
#1152 = ORIENTED_EDGE ( 'NONE', *, *, #118, .T. ) ;
#1153 = EDGE_LOOP ( 'NONE', ( #333, #622, #623, #904 ) ) ;
#1154 = CARTESIAN_POINT ( 'NONE',  ( -49.92996652643193300, 19.95531778823237801, -5.000000000000000000 ) ) ;
#1155 = VECTOR ( 'NONE', #1064, 1000.000000000000000 ) ;
#1156 = EDGE_CURVE ( 'NONE', #839, #916, #631, .T. ) ;
#1157 = DIRECTION ( 'NONE',  ( -0.000000000000000000, -0.000000000000000000, 1.000000000000000000 ) ) ;
#1158 = PERSON ( 'UNSPECIFIED', 'UNSPECIFIED', 'UNSPECIFIED', ('UNSPECIFIED'), ('UNSPECIFIED'), ('UNSPECIFIED') ) ;
#1159 = ADVANCED_FACE ( 'NONE', ( #1256 ), #339, .F. ) ;
#1160 = CLOSED_SHELL ( 'NONE', ( #1303, #824, #270, #585, #315, #1072, #16, #919, #999, #95, #295, #269, #1205, #1159, #739, #1144, #956, #309, #1283, #1185, #72, #233, #1267, #313, #586, #494, #154, #664, #173, #777, #1199, #1018, #1095, #825, #1040, #34, #1301, #412, #725, #681 ) ) ;
#1161 = EDGE_CURVE ( 'NONE', #535, #91, #742, .T. ) ;
#1162 = ORIENTED_EDGE ( 'NONE', *, *, #15, .T. ) ;
#1163 = EDGE_CURVE ( 'NONE', #399, #540, #1081, .T. ) ;
#1164 = CARTESIAN_POINT ( 'NONE',  ( 28.26700000000000301, 13.38350000000000151, 20.94125000000002146 ) ) ;
#1165 = UNCERTAINTY_MEASURE_WITH_UNIT (LENGTH_MEASURE( 1.000000000000000082E-05 ), #1183, 'distance_accuracy_value', 'NONE');
#1166 = DIRECTION ( 'NONE',  ( -0.000000000000000000, 1.000000000000000000, -0.000000000000000000 ) ) ;
#1167 = ORIENTED_EDGE ( 'NONE', *, *, #822, .T. ) ;
#1168 = DIRECTION ( 'NONE',  ( 0.000000000000000000, 0.000000000000000000, -1.000000000000000000 ) ) ;
#1169 = AXIS2_PLACEMENT_3D ( 'NONE', #767, #1273, #351 ) ;
#1170 = DIRECTION ( 'NONE',  ( -1.000000000000000000, 0.000000000000000000, 0.000000000000000000 ) ) ;
#1171 = CIRCLE ( 'NONE', #617, 3.000000000000002665 ) ;
#1172 = AXIS2_PLACEMENT_3D ( 'NONE', #305, #284, #1210 ) ;
#1173 = VERTEX_POINT ( 'NONE', #1154 ) ;
#1174 = CARTESIAN_POINT ( 'NONE',  ( 31.99999999999999289, -35.00000000000000000, 1005.000000000000114 ) ) ;
#1175 = CARTESIAN_POINT ( 'NONE',  ( -26.76700000000000301, -14.88350000000000151, 20.94125000000002146 ) ) ;
#1176 = AXIS2_PLACEMENT_3D ( 'NONE', #497, #875, #1083 ) ;
#1177 = DIRECTION ( 'NONE',  ( -1.000000000000000000, 0.000000000000000000, 0.000000000000000000 ) ) ;
#1178 = EDGE_CURVE ( 'NONE', #119, #294, #58, .T. ) ;
#1179 = CC_DESIGN_PERSON_AND_ORGANIZATION_ASSIGNMENT ( #222, #695, ( #939 ) ) ;
#1180 = ORIENTED_EDGE ( 'NONE', *, *, #772, .F. ) ;
#1181 = DIRECTION ( 'NONE',  ( 0.000000000000000000, -0.000000000000000000, 1.000000000000000000 ) ) ;
#1182 = DIRECTION ( 'NONE',  ( 0.000000000000000000, 0.000000000000000000, -1.000000000000000000 ) ) ;
#1183 =( LENGTH_UNIT ( ) NAMED_UNIT ( * ) SI_UNIT ( .MILLI., .METRE. ) );
#1184 = DIRECTION ( 'NONE',  ( -1.000000000000000000, 0.000000000000000000, -0.000000000000000000 ) ) ;
#1185 = ADVANCED_FACE ( 'NONE', ( #545 ), #39, .T. ) ;
#1186 = DIRECTION ( 'NONE',  ( -1.000000000000000000, 0.000000000000000000, 0.000000000000000000 ) ) ;
#1187 = FACE_BOUND ( 'NONE', #1100, .T. ) ;
#1188 = DIRECTION ( 'NONE',  ( -1.000000000000000000, 0.000000000000000000, 0.000000000000000000 ) ) ;
#1189 = CIRCLE ( 'NONE', #232, 29.99999999999999645 ) ;
#1190 = DIRECTION ( 'NONE',  ( 1.000000000000000000, 0.000000000000000000, -0.000000000000000000 ) ) ;
#1191 = ORIENTED_EDGE ( 'NONE', *, *, #392, .T. ) ;
#1192 = CARTESIAN_POINT ( 'NONE',  ( 19.92996652643194366, 19.95531778823259472, -5.000000000000000000 ) ) ;
#1193 = DIRECTION ( 'NONE',  ( 3.888497349669684180E-16, 1.000000000000000000, 0.000000000000000000 ) ) ;
#1194 = AXIS2_PLACEMENT_3D ( 'NONE', #1304, #386, #657 ) ;
#1195 = AXIS2_PLACEMENT_3D ( 'NONE', #961, #948, #556 ) ;
#1196 = DIRECTION ( 'NONE',  ( 0.000000000000000000, -0.000000000000000000, 1.000000000000000000 ) ) ;
#1197 = DIRECTION ( 'NONE',  ( 0.000000000000000000, 0.000000000000000000, -1.000000000000000000 ) ) ;
#1198 = CC_DESIGN_APPROVAL ( #215, ( #455 ) ) ;
#1199 = ADVANCED_FACE ( 'NONE', ( #770, #965, #466, #260, #1187, #163 ), #264, .T. ) ;
#1200 = CARTESIAN_POINT ( 'NONE',  ( 19.92996652643194366, -19.95531778823256630, -5.000000000000000000 ) ) ;
#1201 = CARTESIAN_POINT ( 'NONE',  ( -28.26700000000000657, -13.38349999999999795, 20.94125000000002146 ) ) ;
#1202 = VERTEX_POINT ( 'NONE', #476 ) ;
#1203 = EDGE_CURVE ( 'NONE', #544, #560, #864, .T. ) ;
#1204 = CARTESIAN_POINT ( 'NONE',  ( 31.99999999999999289, -35.00000000000000000, -5.000000000000000000 ) ) ;
#1205 = ADVANCED_FACE ( 'NONE', ( #272 ), #1073, .T. ) ;
#1206 = EDGE_CURVE ( 'NONE', #1315, #795, #52, .T. ) ;
#1207 = ORIENTED_EDGE ( 'NONE', *, *, #957, .T. ) ;
#1208 = VECTOR ( 'NONE', #436, 1000.000000000000000 ) ;
#1209 = CARTESIAN_POINT ( 'NONE',  ( 26.76699999999999591, -14.88350000000000861, 20.94125000000002146 ) ) ;
#1210 = DIRECTION ( 'NONE',  ( 1.000000000000000000, 0.000000000000000000, 0.000000000000000000 ) ) ;
#1211 = ORIENTED_EDGE ( 'NONE', *, *, #135, .F. ) ;
#1212 = LINE ( 'NONE', #183, #574 ) ;
#1213 = FACE_BOUND ( 'NONE', #1071, .T. ) ;
#1214 = CARTESIAN_POINT ( 'NONE',  ( -19.92996652643193656, -19.95531778823256630, 0.000000000000000000 ) ) ;
#1215 = LINE ( 'NONE', #1314, #101 ) ;
#1216 = VERTEX_POINT ( 'NONE', #373 ) ;
#1217 = DIRECTION ( 'NONE',  ( -0.000000000000000000, -0.000000000000000000, -1.000000000000000000 ) ) ;
#1218 = AXIS2_PLACEMENT_3D ( 'NONE', #1015, #1217, #710 ) ;
#1219 = COORDINATED_UNIVERSAL_TIME_OFFSET ( 3, 0, .AHEAD. ) ;
#1220 = VECTOR ( 'NONE', #841, 1000.000000000000000 ) ;
#1221 = ORIENTED_EDGE ( 'NONE', *, *, #844, .T. ) ;
#1222 = CARTESIAN_POINT ( 'NONE',  ( 31.99999999999999289, -35.00000000000000000, 0.000000000000000000 ) ) ;
#1223 = DIRECTION ( 'NONE',  ( -0.000000000000000000, -0.000000000000000000, -1.000000000000000000 ) ) ;
#1224 = EDGE_CURVE ( 'NONE', #795, #285, #570, .T. ) ;
#1225 = CC_DESIGN_APPROVAL ( #1098, ( #939 ) ) ;
#1226 = CC_DESIGN_DATE_AND_TIME_ASSIGNMENT ( #1317, #1112, ( #1320 ) ) ;
#1227 = EDGE_CURVE ( 'NONE', #935, #338, #1079, .T. ) ;
#1228 = ORIENTED_EDGE ( 'NONE', *, *, #1021, .F. ) ;
#1229 = DIRECTION ( 'NONE',  ( 1.000000000000000000, 0.000000000000000000, 0.000000000000000000 ) ) ;
#1230 = ORIENTED_EDGE ( 'NONE', *, *, #647, .F. ) ;
#1231 = CARTESIAN_POINT ( 'NONE',  ( 26.76699999999999591, 14.88350000000000506, 1000.000000000000000 ) ) ;
#1232 = CARTESIAN_POINT ( 'NONE',  ( 26.76699999999999591, -13.38349999999999795, 1000.000000000000000 ) ) ;
#1233 = ORIENTED_EDGE ( 'NONE', *, *, #1163, .F. ) ;
#1234 = EDGE_LOOP ( 'NONE', ( #81, #134 ) ) ;
#1235 = DIRECTION ( 'NONE',  ( -0.000000000000000000, -0.000000000000000000, 1.000000000000000000 ) ) ;
#1236 = DIRECTION ( 'NONE',  ( 0.000000000000000000, 0.000000000000000000, -1.000000000000000000 ) ) ;
#1237 = DIRECTION ( 'NONE',  ( 0.000000000000000000, 0.000000000000000000, 1.000000000000000000 ) ) ;
#1238 = AXIS2_PLACEMENT_3D ( 'NONE', #64, #277, #1089 ) ;
#1239 = ORIENTED_EDGE ( 'NONE', *, *, #415, .F. ) ;
#1240 = ORIENTED_EDGE ( 'NONE', *, *, #210, .F. ) ;
#1241 = CALENDAR_DATE ( 2026, 15, 8 ) ;
#1242 = ORIENTED_EDGE ( 'NONE', *, *, #587, .T. ) ;
#1243 = VECTOR ( 'NONE', #47, 1000.000000000000000 ) ;
#1244 = FACE_OUTER_BOUND ( 'NONE', #439, .T. ) ;
#1245 = EDGE_LOOP ( 'NONE', ( #426, #734, #120, #650, #1242, #107, #754, #1152 ) ) ;
#1246 = EDGE_LOOP ( 'NONE', ( #1233, #1211 ) ) ;
#1247 = EDGE_LOOP ( 'NONE', ( #1029, #292 ) ) ;
#1248 = EDGE_CURVE ( 'NONE', #353, #259, #1281, .T. ) ;
#1249 = DATE_AND_TIME ( #410, #913 ) ;
#1250 = VERTEX_POINT ( 'NONE', #764 ) ;
#1251 = CIRCLE ( 'NONE', #763, 35.00000000000000711 ) ;
#1252 = CARTESIAN_POINT ( 'NONE',  ( 38.00000000000000711, 35.00000000000000000, -5.000000000000000000 ) ) ;
#1253 = DIRECTION ( 'NONE',  ( -0.000000000000000000, -0.000000000000000000, -1.000000000000000000 ) ) ;
#1254 = VERTEX_POINT ( 'NONE', #564 ) ;
#1255 = EDGE_LOOP ( 'NONE', ( #834, #457 ) ) ;
#1256 = FACE_OUTER_BOUND ( 'NONE', #343, .T. ) ;
#1257 = CARTESIAN_POINT ( 'NONE',  ( 26.76699999999999591, 13.38350000000000151, 1000.000000000000000 ) ) ;
#1258 = ORIENTED_EDGE ( 'NONE', *, *, #976, .F. ) ;
#1259 = AXIS2_PLACEMENT_3D ( 'NONE', #79, #160, #983 ) ;
#1260 = ORIENTED_EDGE ( 'NONE', *, *, #1296, .F. ) ;
#1261 = EDGE_CURVE ( 'NONE', #182, #859, #701, .T. ) ;
#1262 = DIRECTION ( 'NONE',  ( -1.000000000000000000, 0.000000000000000000, 0.000000000000000000 ) ) ;
#1263 = DIRECTION ( 'NONE',  ( -3.888497349669684180E-16, -1.000000000000000000, 0.000000000000000000 ) ) ;
#1264 = EDGE_CURVE ( 'NONE', #529, #1146, #1311, .T. ) ;
#1265 = VECTOR ( 'NONE', #1157, 1000.000000000000000 ) ;
#1266 = AXIS2_PLACEMENT_3D ( 'NONE', #462, #1168, #655 ) ;
#1267 = ADVANCED_FACE ( 'NONE', ( #387, #175 ), #579, .F. ) ;
#1268 = ORIENTED_EDGE ( 'NONE', *, *, #1054, .F. ) ;
#1269 = FACE_OUTER_BOUND ( 'NONE', #941, .T. ) ;
#1270 = DIRECTION ( 'NONE',  ( -1.000000000000000000, 0.000000000000000000, 0.000000000000000000 ) ) ;
#1271 = EDGE_LOOP ( 'NONE', ( #1039, #314, #1258, #735 ) ) ;
#1272 = CARTESIAN_POINT ( 'NONE',  ( 49.92996652643194011, 19.95531778823237801, 0.000000000000000000 ) ) ;
#1273 = DIRECTION ( 'NONE',  ( 0.000000000000000000, 0.000000000000000000, -1.000000000000000000 ) ) ;
#1274 = ORIENTED_EDGE ( 'NONE', *, *, #1116, .T. ) ;
#1275 = DIRECTION ( 'NONE',  ( -0.000000000000000000, -0.000000000000000000, -1.000000000000000000 ) ) ;
#1276 = DIRECTION ( 'NONE',  ( 0.000000000000000000, -0.000000000000000000, -1.000000000000000000 ) ) ;
#1277 = CARTESIAN_POINT ( 'NONE',  ( 0.000000000000000000, 0.000000000000000000, -5.000000000000000000 ) ) ;
#1278 = AXIS2_PLACEMENT_3D ( 'NONE', #131, #428, #142 ) ;
#1279 = AXIS2_PLACEMENT_3D ( 'NONE', #861, #1182, #157 ) ;
#1280 = EDGE_LOOP ( 'NONE', ( #532, #244, #690, #703 ) ) ;
#1281 = LINE ( 'NONE', #561, #784 ) ;
#1282 = CARTESIAN_POINT ( 'NONE',  ( -42.00000000000000000, 0.000000000000000000, 20.94124999999999659 ) ) ;
#1283 = ADVANCED_FACE ( 'NONE', ( #69 ), #684, .T. ) ;
#1284 = CC_DESIGN_SECURITY_CLASSIFICATION ( #455, ( #939 ) ) ;
#1285 = DIRECTION ( 'NONE',  ( 1.000000000000000000, 0.000000000000000000, 0.000000000000000000 ) ) ;
#1286 = DIRECTION ( 'NONE',  ( 0.000000000000000000, -1.000000000000000000, 0.000000000000000000 ) ) ;
#1287 = CARTESIAN_POINT ( 'NONE',  ( -32.00000000000002132, -35.00000000000000000, -5.000000000000000000 ) ) ;
#1288 = VERTEX_POINT ( 'NONE', #54 ) ;
#1289 = DIRECTION ( 'NONE',  ( 0.000000000000000000, -0.000000000000000000, 1.000000000000000000 ) ) ;
#1290 = CARTESIAN_POINT ( 'NONE',  ( 38.00000000000000711, 35.00000000000000000, 1005.000000000000114 ) ) ;
#1291 = CARTESIAN_POINT ( 'NONE',  ( 26.76699999999999591, -14.88350000000000861, 1000.000000000000000 ) ) ;
#1292 = EDGE_LOOP ( 'NONE', ( #248, #24 ) ) ;
#1293 = CARTESIAN_POINT ( 'NONE',  ( -32.00000000000002132, -35.00000000000000000, 1005.000000000000114 ) ) ;
#1294 = DIRECTION ( 'NONE',  ( -1.000000000000000000, 0.000000000000000000, 0.000000000000000000 ) ) ;
#1295 = FACE_OUTER_BOUND ( 'NONE', #987, .T. ) ;
#1296 = EDGE_CURVE ( 'NONE', #10, #1315, #394, .T. ) ;
#1297 = AXIS2_PLACEMENT_3D ( 'NONE', #1192, #988, #1114 ) ;
#1298 = CARTESIAN_POINT ( 'NONE',  ( -35.00000000000000000, 35.00000000000000000, -5.000000000000000000 ) ) ;
#1299 = DIRECTION ( 'NONE',  ( 1.000000000000000000, 0.000000000000000000, 0.000000000000000000 ) ) ;
#1300 = CARTESIAN_POINT ( 'NONE',  ( -32.00000000000000000, 35.00000000000000000, -5.000000000000000000 ) ) ;
#1301 = ADVANCED_FACE ( 'NONE', ( #787, #981, #489, #1213, #1076, #288 ), #469, .F. ) ;
#1302 = EDGE_CURVE ( 'NONE', #894, #721, #893, .T. ) ;
#1303 = ADVANCED_FACE ( 'NONE', ( #977 ), #689, .T. ) ;
#1304 = CARTESIAN_POINT ( 'NONE',  ( -35.00000000000002132, -35.00000000000000000, 0.000000000000000000 ) ) ;
#1305 = ORIENTED_EDGE ( 'NONE', *, *, #1016, .F. ) ;
#1306 = CARTESIAN_POINT ( 'NONE',  ( -26.76700000000000301, 14.88350000000000506, 20.94125000000002146 ) ) ;
#1307 = DIRECTION ( 'NONE',  ( 1.000000000000000000, 0.000000000000000000, 0.000000000000000000 ) ) ;
#1308 = MANIFOLD_SOLID_BREP ( 'Вырез-Вытянуть9', #1160 ) ;
#1309 = VERTEX_POINT ( 'NONE', #1093 ) ;
#1310 = DIRECTION ( 'NONE',  ( -0.000000000000000000, -0.000000000000000000, -1.000000000000000000 ) ) ;
#1311 = LINE ( 'NONE', #1067, #62 ) ;
#1312 = ORIENTED_EDGE ( 'NONE', *, *, #352, .F. ) ;
#1313 = LINE ( 'NONE', #485, #848 ) ;
#1314 = CARTESIAN_POINT ( 'NONE',  ( 19.92996652643172695, 49.95531778823259117, 0.000000000000000000 ) ) ;
#1315 = VERTEX_POINT ( 'NONE', #1291 ) ;
#1316 = CARTESIAN_POINT ( 'NONE',  ( -26.76700000000000301, -14.88350000000000151, 1000.000000000000000 ) ) ;
#1317 = DATE_AND_TIME ( #716, #1105 ) ;
#1318 = EDGE_CURVE ( 'NONE', #38, #522, #274, .T. ) ;
#1319 = AXIS2_PLACEMENT_3D ( 'NONE', #881, #670, #895 ) ;
#1320 = PRODUCT_DEFINITION ( 'UNKNOWN', '', #939, #265 ) ;
#1321 = LINE ( 'NONE', #712, #867 ) ;
#1322 = CARTESIAN_POINT ( 'NONE',  ( -26.76700000000000301, -13.38349999999999795, 1000.000000000000000 ) ) ;
#1323 = ORIENTED_EDGE ( 'NONE', *, *, #419, .T. ) ;
#1324 = CARTESIAN_POINT ( 'NONE',  ( 38.00000000000000000, -35.00000000000000000, 0.000000000000000000 ) ) ;
#1325 = AXIS2_PLACEMENT_3D ( 'NONE', #733, #927, #442 ) ;
#1326 = PERSON_AND_ORGANIZATION ( #1158, #761 ) ;
#1327 = CIRCLE ( 'NONE', #553, 42.00000000000000000 ) ;
#1328 = ORIENTED_EDGE ( 'NONE', *, *, #921, .F. ) ;
#1329 = CARTESIAN_POINT ( 'NONE',  ( 49.92996652643194011, -19.95531778823234959, -5.000000000000000000 ) ) ;
#1330 = DIRECTION ( 'NONE',  ( 1.000000000000000000, -0.000000000000000000, -0.000000000000000000 ) ) ;
#1331 = VECTOR ( 'NONE', #358, 1000.000000000000000 ) ;
ENDSEC;
END-ISO-10303-21;
